<svg width="17" height="17" viewBox="0 0 17 17" fill="none" xmlns="http://www.w3.org/2000/svg">
<path d="M0.457498 1.91623L14.1936 15.6524C14.4464 15.9051 14.9782 15.7835 15.3807 15.3811C15.7832 14.9785 15.9047 14.4467 15.652 14.194L1.91587 0.45786C1.66311 0.205105 1.1313 0.326709 0.728823 0.729185C0.326346 1.13166 0.204781 1.66351 0.457498 1.91623Z" fill="white"/>
<path d="M14.194 0.805988L0.45786 14.5421C0.205105 14.7949 0.326708 15.3267 0.729184 15.7292C1.13166 16.1317 1.66351 16.2532 1.91623 16.0005L15.6524 2.26436C15.9051 2.0116 15.7835 1.47979 15.3811 1.07731C14.9786 0.674836 14.4468 0.553233 14.194 0.805988Z" fill="white"/>
</svg>
