<svg width="21" height="33" viewBox="0 0 21 33" fill="none" xmlns="http://www.w3.org/2000/svg">
<path d="M2.4575 10.9162L16.1936 24.6524C16.4464 24.9051 16.9782 24.7835 17.3807 24.3811C17.7832 23.9785 17.9047 23.4467 17.652 23.194L3.91587 9.45786C3.66311 9.2051 3.1313 9.32671 2.72882 9.72919C2.32635 10.1317 2.20478 10.6635 2.4575 10.9162Z" fill="white"/>
<path d="M16.194 9.80599L2.45786 23.5421C2.2051 23.7949 2.32671 24.3267 2.72918 24.7292C3.13166 25.1317 3.66351 25.2532 3.91623 25.0005L17.6524 11.2644C17.9051 11.0116 17.7835 10.4798 17.3811 10.0773C16.9786 9.67484 16.4468 9.55323 16.194 9.80599Z" fill="white"/>
</svg>
