<svg width="31" height="31" viewBox="0 0 31 31" fill="none" xmlns="http://www.w3.org/2000/svg">
<path fill-rule="evenodd" clip-rule="evenodd" d="M31 24.1875V6.8125C31 5.15825 29.6542 3.8125 28 3.8125H3C1.34581 3.8125 0 5.15825 0 6.8125V24.1875C0 25.8418 1.34581 27.1875 3 27.1875H28C29.6542 27.1875 31 25.8418 31 24.1875ZM4.37494 12.625V10.375C4.37494 8.9965 5.49644 7.875 6.87494 7.875H9.12494C10.5034 7.875 11.6249 8.9965 11.6249 10.375V12.625C11.6249 14.0035 10.5034 15.125 9.12494 15.125H6.87494C5.49644 15.125 4.37494 14.0035 4.37494 12.625ZM22.1808 21.4357C22.5299 21.8637 23.1598 21.9277 23.5878 21.5786C27.6759 18.2435 27.6454 12.0112 23.5348 8.71493C23.1039 8.36949 22.4744 8.43856 22.129 8.8695C21.7835 9.30031 21.8526 9.92975 22.2835 10.2752C25.4016 12.7757 25.4251 17.4992 22.3236 20.0287C21.8957 20.3778 21.8318 21.0077 22.1808 21.4357ZM19.4957 11.3791C19.8862 10.9886 20.5194 10.9886 20.9099 11.3791C22.9992 13.4684 22.9992 16.8681 20.9099 18.9574C20.5193 19.3479 19.8861 19.3479 19.4957 18.9574C19.1052 18.5669 19.1052 17.9337 19.4957 17.5432C20.8052 16.2336 20.8052 14.1028 19.4957 12.7932C19.1051 12.4027 19.1051 11.7696 19.4957 11.3791ZM5.37494 17.4375H14.9374C15.4897 17.4375 15.9374 17.8852 15.9374 18.4375C15.9374 18.9898 15.4897 19.4375 14.9374 19.4375H5.37494C4.82269 19.4375 4.37494 18.9898 4.37494 18.4375C4.37494 17.8852 4.82269 17.4375 5.37494 17.4375ZM11.8124 21.1875H5.37494C4.82269 21.1875 4.37494 21.6352 4.37494 22.1875C4.37494 22.7398 4.82269 23.1875 5.37494 23.1875H11.8124C12.3647 23.1875 12.8124 22.7398 12.8124 22.1875C12.8124 21.6352 12.3647 21.1875 11.8124 21.1875Z" fill="#083E7C"/>
</svg>
