<svg width="21" height="21" viewBox="0 0 21 21" fill="none" xmlns="http://www.w3.org/2000/svg">
<g clip-path="url(#clip0)">
<path d="M17.6491 0H2.52131C1.13081 0 0 1.13081 0 2.52131V17.6491C0 19.0396 1.13081 20.1705 2.52131 20.1705H17.6491C19.0396 20.1705 20.1705 19.0396 20.1705 17.6491V2.52131C20.1705 1.13081 19.0396 0 17.6491 0Z" fill="white"/>
<path d="M17.0184 10.0852H13.8667V7.56394C13.8667 6.86806 14.4315 6.93362 15.1274 6.93362H16.388V3.78198H13.8667C11.7778 3.78198 10.0848 5.47504 10.0848 7.56394V10.0852H7.56348V13.2369H10.0848V20.1705H13.8667V13.2369H15.7577L17.0184 10.0852Z" fill="#320000"/>
</g>
<defs>
<clipPath id="clip0">
<rect width="20.1705" height="20.1705" fill="white"/>
</clipPath>
</defs>
</svg>
