<svg width="73" height="73" viewBox="0 0 73 73" fill="none" xmlns="http://www.w3.org/2000/svg">
<path fill-rule="evenodd" clip-rule="evenodd" d="M12.1669 8.11098V48.6665V52.7221H10.1391C9.0192 52.7221 8.11133 51.8142 8.11133 50.6943V6.0832C8.11133 4.96329 9.0192 4.05542 10.1391 4.05542H46.6391C47.759 4.05542 48.6669 4.96329 48.6669 6.0832V8.11098H12.1669ZM20.2781 16.2221V56.7777V60.8332H18.2504C17.1304 60.8332 16.2226 59.9254 16.2226 58.8055V14.1943C16.2226 13.0744 17.1304 12.1666 18.2504 12.1666H54.7504C55.8703 12.1666 56.7781 13.0744 56.7781 14.1943V16.2221H20.2781ZM62.8612 20.2776H26.3612C25.2413 20.2776 24.3334 21.1855 24.3334 22.3054V66.9165C24.3334 68.0364 25.2413 68.9443 26.3612 68.9443H62.8612C63.9811 68.9443 64.889 68.0364 64.889 66.9165V22.3054C64.889 21.1855 63.9811 20.2776 62.8612 20.2776ZM32.4447 52.7221H56.778V48.6666H32.4447V52.7221ZM56.778 44.611H32.4447V40.5554H56.778V44.611ZM32.4447 36.4998H56.778V32.4443H32.4447V36.4998Z" fill="#083E7C"/>
</svg>
