<svg width="21" height="21" viewBox="0 0 21 21" fill="none" xmlns="http://www.w3.org/2000/svg">
<g clip-path="url(#clip0)">
<path d="M18.9308 0H2.40954C1.40186 0 0.584961 0.816903 0.584961 1.82458V18.3458C0.584961 19.3535 1.40186 20.1705 2.40954 20.1705H18.9308C19.9385 20.1705 20.7554 19.3535 20.7554 18.3458V1.82458C20.7554 0.816903 19.9385 0 18.9308 0ZM6.82655 17.4165C6.82655 17.7098 6.58884 17.9475 6.29558 17.9475H4.03532C3.74206 17.9475 3.50434 17.7098 3.50434 17.4165V7.94161C3.50434 7.64835 3.74206 7.41064 4.03532 7.41064H6.29558C6.58884 7.41064 6.82655 7.64835 6.82655 7.94161V17.4165ZM5.16545 6.51749C3.97956 6.51749 3.01819 5.55612 3.01819 4.37023C3.01819 3.18434 3.97956 2.22297 5.16545 2.22297C6.35133 2.22297 7.31271 3.18434 7.31271 4.37023C7.31271 5.55612 6.35139 6.51749 5.16545 6.51749ZM18.6386 17.4593C18.6386 17.7289 18.42 17.9475 18.1504 17.9475H15.7249C15.4553 17.9475 15.2367 17.7289 15.2367 17.4593V13.015C15.2367 12.352 15.4312 10.1098 13.5041 10.1098C12.0094 10.1098 11.7062 11.6445 11.6453 12.3333V17.4593C11.6453 17.7289 11.4267 17.9475 11.1571 17.9475H8.81129C8.54168 17.9475 8.32308 17.7289 8.32308 17.4593V7.89884C8.32308 7.62924 8.54168 7.41064 8.81129 7.41064H11.1571C11.4267 7.41064 11.6453 7.62924 11.6453 7.89884V8.72546C12.1996 7.89367 13.0233 7.25165 14.7771 7.25165C18.6608 7.25165 18.6386 10.88 18.6386 12.8736V17.4593Z" fill="white"/>
</g>
<defs>
<clipPath id="clip0">
<rect width="20.1705" height="20.1705" fill="white" transform="translate(0.584961)"/>
</clipPath>
</defs>
</svg>
