<svg width="77" height="49" viewBox="0 0 77 49" fill="none" xmlns="http://www.w3.org/2000/svg">
<path d="M2.77054 47.7953V41.4578H1.04549V43.6052H0V40.4103H6.84793V43.6052H5.80244V41.4578H4.07739V47.7953H5.17515V48.8428H1.72505V47.7953H2.77054Z" fill="white"/>
<path d="M9.51429 47.7953V41.4578H8.36426V40.4103H11.8144C12.5462 40.4103 13.1212 40.4627 13.5394 40.5674C13.9576 40.6722 14.3235 40.934 14.5849 41.2483C14.8463 41.6149 15.0031 42.0339 15.0031 42.6101C15.0031 43.71 14.4281 44.4432 13.278 44.7051L14.7417 47.7953H15.7872V48.8428H13.9053L11.9712 44.9146H10.7689V47.7953H11.8666V48.8428H8.36426V47.7953H9.51429ZM10.7689 43.8671H11.7621C12.2326 43.8671 12.5985 43.8147 12.8076 43.7624C13.0167 43.71 13.2258 43.5528 13.3826 43.3957C13.5394 43.1862 13.5917 42.9243 13.5917 42.6101C13.5917 42.3482 13.5394 42.0863 13.3826 41.9292C13.2258 41.7197 13.0689 41.6149 12.8598 41.5626C12.6507 41.5102 12.3371 41.5102 11.8666 41.5102H10.7689V43.8671Z" fill="white"/>
<path d="M22.7913 45.9098H19.7594L19.1321 47.8477H20.1776V48.8952H16.832V47.8477H17.8775L20.1776 41.4054H19.1844V40.4626H23.4709V41.4054H22.4254L24.7777 47.8477H25.7187V48.8952H22.4254V47.8477H23.4709L22.7913 45.9098ZM22.4777 44.9146L21.3799 41.4054H21.2231L20.073 44.9146H22.4777Z" fill="white"/>
<path d="M27.6012 47.7953V41.4578H26.5557V40.4103H33.09V42.9767H32.0445V41.5102H28.908V44.0242H31.6263V45.0717H28.908V47.8477H30.0058V48.8952H26.6079V47.8477H27.6012V47.7953Z" fill="white"/>
<path d="M38.3694 45.9098H35.3375L34.7102 47.8477H35.7557V48.8952H32.4102V47.8477H33.4556L35.7557 41.4054H34.7625V40.4626H39.049V41.4054H38.0035L40.3558 47.8477H41.2968V48.8952H37.9512V47.8477H38.9967L38.3694 45.9098ZM38.0558 44.9146L36.958 41.4054H36.8535L35.6512 44.9146H38.0558Z" fill="white"/>
<path d="M43.1788 47.7953V41.4578H42.0811V40.4103H45.5312V41.4578H44.4857V47.7953H47.0471V44.9146H48.2494V48.8428H42.0811V47.7953H43.1788Z" fill="white"/>
<path d="M55.4103 44.8099H58.4944C58.4944 44.9147 58.4944 45.0194 58.4944 45.1242C58.4944 46.3288 58.1285 47.2716 57.3444 47.9525C56.5603 48.6857 55.5671 49 54.2602 49C52.7443 49 51.5942 48.581 50.8624 47.6906C50.1306 46.8002 49.7646 45.805 49.7646 44.6004C49.7646 43.3434 50.1306 42.3482 50.9147 41.5102C51.6988 40.6722 52.692 40.2532 53.9989 40.2532C55.2012 40.2532 56.1421 40.6198 56.9785 41.3531V40.4103H58.0763V43.1862H56.9785C56.7694 42.7149 56.4035 42.2958 55.8807 41.9292C55.358 41.5626 54.783 41.4055 54.1034 41.4055C53.1625 41.4055 52.4306 41.7197 51.9079 42.3482C51.3851 42.9767 51.1238 43.71 51.1238 44.6004C51.1238 45.5955 51.4374 46.4336 52.0124 47.0097C52.6397 47.5858 53.3716 47.9001 54.208 47.9001C54.8875 47.9001 55.4625 47.6906 55.9853 47.324C56.508 46.9573 56.8217 46.4336 56.9262 45.8574H55.4103V44.8099Z" fill="white"/>
<path d="M65.6565 45.9098H62.6246L61.9973 47.8477H63.0428V48.8952H59.6973V47.8477H60.7428L63.0428 41.4054H61.9973V40.4626H66.2838V41.4054H65.2383L67.5907 47.8477H68.5316V48.8952H65.2383V47.8477H66.2838L65.6565 45.9098ZM65.3429 44.9146L64.2451 41.4054H64.0883L62.9383 44.9146H65.3429Z" fill="white"/>
<path d="M70.7272 47.7953V41.4578H69.5771V40.4103H73.0273C73.7591 40.4103 74.3341 40.4627 74.7523 40.5674C75.1705 40.6722 75.5364 40.934 75.7978 41.2483C76.0592 41.6149 76.216 42.0339 76.216 42.6101C76.216 43.71 75.641 44.4432 74.4909 44.7051L75.9546 47.7953H77.0001V48.8428H75.1705L73.2363 44.9146H72.034V47.7953H73.1318V48.8428H69.6294V47.7953H70.7272ZM71.9818 43.8671H72.975C73.4454 43.8671 73.8114 43.8147 74.0205 43.7624C74.2296 43.71 74.4387 43.5528 74.5955 43.3957C74.7523 43.1862 74.8046 42.9243 74.8046 42.6101C74.8046 42.3482 74.7523 42.0863 74.5955 41.9292C74.4387 41.7197 74.2818 41.6149 74.0727 41.5626C73.8636 41.5102 73.55 41.5102 73.0795 41.5102H71.9818V43.8671Z" fill="white"/>
<path d="M46.053 29.4705C46.7325 28.4753 47.6735 27.7421 47.6735 24.0757C47.6212 20.4094 48.5621 23.6567 48.5621 24.3376C48.6144 25.0185 49.0326 28.0039 47.1507 30.2037C47.778 29.8371 49.9213 29.1562 50.4963 26.2232C51.019 23.2901 51.3327 26.3279 51.2281 26.8517C51.1758 27.3754 51.019 28.7372 49.869 29.9942C50.6531 29.4705 53.1623 28.3182 53.8418 25.3328C54.5214 22.3473 54.3646 22.3473 54.3646 22.3473C54.3646 22.3473 54.6259 20.8808 55.0441 23.4472C55.4101 26.066 54.1032 28.0039 53.6327 28.5277C53.9987 29.4181 55.4101 33.1892 56.2987 35.4414C56.926 35.1271 59.2783 32.7702 60.0102 39.1601H58.5988C58.5988 39.1601 58.5988 36.9603 58.5988 36.7508C58.5988 36.5413 58.1283 35.8604 57.6056 36.2794C57.0828 36.646 56.7169 36.9603 56.0896 36.9079C55.4623 36.8555 55.2532 36.3318 54.8873 35.389C54.5214 34.4462 53.3714 31.775 52.7963 29.5752C52.1691 30.2037 51.6986 30.7799 50.1304 31.1989C50.6008 31.5655 53.4759 33.6606 53.5282 39.1077C52.4304 39.1077 52.4304 39.1077 52.4304 39.1077L52.3781 37.5364C52.3781 37.5364 51.96 34.1843 49.1371 31.6179C48.5621 31.8274 47.6212 32.3512 47.3075 32.194C46.9939 31.9845 47.9871 31.2513 47.9871 31.2513C47.9871 31.2513 45.1643 32.194 44.9552 34.3415C44.8507 35.3366 44.4325 34.1843 44.3802 33.6606C44.3279 33.0844 44.2756 32.1417 44.9552 31.0418C44.5893 31.4084 43.0211 32.194 42.6551 34.8652C42.9688 34.9176 45.6348 34.8128 45.5302 39.1601C44.6416 39.1601 44.4847 39.1601 44.4847 39.1601L44.3279 37.1698C44.3279 37.1698 44.2234 36.3318 43.0211 36.2794C41.8187 36.227 41.296 36.3318 41.3483 34.6557C41.4006 33.0844 42.8642 30.3085 46.053 29.4705Z" fill="white"/>
<path d="M59.0174 20.2524C57.6583 21.3523 57.4492 21.457 57.2924 21.7189C57.2924 21.7189 56.9264 21.8236 56.6128 24.9138C56.2992 28.0564 54.8355 28.004 54.7832 27.8993C54.7309 27.7945 55.7241 26.6423 55.515 24.4948C55.3059 22.3474 55.7241 20.9333 56.8219 20.2C57.9197 19.4667 59.0697 19.1525 59.2265 17.2145C59.2265 17.2145 56.5083 17.4241 56.5083 13.8101C56.5083 10.1961 61.3175 11.8722 61.5266 13.4435C61.788 12.9721 63.5653 11.1913 61.2129 9.4105C60.7947 9.04387 60.272 8.72961 59.9061 8.04872C59.6447 7.68209 59.4356 7.15833 58.9651 6.89645C58.4947 6.58219 57.1355 5.84892 55.0969 5.32516C55.0969 4.85378 55.9855 2.18259 52.4831 0.663686C51.699 0.297053 52.7445 -0.436213 54.2605 0.349429C55.7764 1.18745 56.5083 2.02547 56.1423 4.38239C56.3514 4.43477 59.8015 4.90615 60.0629 7.57734C60.6379 7.83922 63.9835 8.83436 63.513 11.8198C62.6766 14.5957 60.8993 15.4338 60.847 15.3814C60.7947 15.329 60.4288 15.329 61.2129 13.9149C61.2129 13.9149 58.9129 12.2388 57.9719 13.4435C57.0833 14.6481 58.3379 16.1147 59.5402 16.4289C59.5924 16.2194 59.8015 16.0099 59.9061 16.0099C59.9584 16.0099 60.0106 16.167 59.9584 16.5337C59.9584 17.0574 60.4288 19.1525 59.0174 20.2524Z" fill="white"/>
<path d="M41.4007 20.9333C40.4075 19.5191 40.1462 18.0526 40.303 15.748C40.4075 13.9148 41.0348 16.586 41.0348 16.586C41.0348 16.586 41.4007 18.7858 42.9167 20.7238C44.4849 22.6617 44.4849 23.0283 44.4849 23.0283C44.4849 23.0283 44.694 21.1428 43.8576 19.4143C43.1781 17.4764 43.4394 16.6908 44.4326 18.6811C45.3736 20.619 46.2622 20.5142 47.0464 23.0807C47.0464 23.0807 47.935 25.2281 46.4191 27.8469C45.844 28.9468 45.6349 28.4754 45.8963 27.3231C46.1577 26.1709 46.3145 24.3377 45.7395 23.0807C45.5827 24.652 45.5304 26.2756 43.7531 27.8469C43.1781 28.3707 43.1258 28.3183 43.1258 28.0564C43.1258 27.7945 44.5895 25.8566 43.9099 24.652C43.2826 23.4473 42.3939 22.3998 41.4007 20.9333Z" fill="white"/>
<path d="M19.7591 30.7277C21.7978 30.6753 22.4774 32.8751 27.0775 32.0371C28.0707 31.8276 29.6912 30.78 30.4231 27.009C30.214 26.7471 29.0117 25.6996 28.5935 25.3853C28.1753 25.1234 28.3844 24.4425 29.3776 24.9139C30.3185 25.3329 31.1026 25.6996 33.1413 28.3184C35.18 30.9372 38.6301 30.9895 38.6301 30.9895C38.6301 30.9895 40.7734 25.3853 41.9757 26.3281C41.9757 26.3281 42.0802 26.4328 41.7666 27.009C41.4529 27.5851 39.937 30.0468 39.5711 32.1942C39.2051 34.3416 38.9438 35.7034 39.1529 39.2126C38.3165 39.2126 38.2119 39.2126 38.2119 39.2126C38.2119 39.2126 37.4801 35.1796 38.3165 32.1418C37.5846 32.2466 36.6437 31.8799 36.0687 31.6181C35.8596 31.9847 34.9187 34.0797 33.1936 34.3416C31.4686 34.6559 31.2595 34.4464 31.2595 34.4464C31.2595 34.4464 31.0504 35.3368 31.7822 35.9653C32.1481 35.8605 35.0755 34.8654 35.2846 37.5366C35.3369 39.1602 35.3368 39.1602 35.3368 39.1602H34.2391C34.2391 39.1602 34.1868 37.5366 34.03 37.2223C33.8732 36.9081 33.0891 36.6985 31.8867 37.3271C30.6844 37.9032 30.1617 35.7034 30.0049 35.1796C29.8481 34.6559 29.4821 32.9798 31.7299 32.9798C34.03 32.9798 34.5527 32.718 34.9709 31.2514C34.1868 30.8848 32.4095 29.8896 30.9458 27.6375C30.7367 28.5802 30.7367 31.0943 28.4889 32.718C29.0117 34.7083 30.1094 39.1078 30.1094 39.1078L28.9071 39.1602C28.9071 39.1602 27.7571 35.4939 27.3389 33.2417C26.2934 33.6084 23.732 33.975 20.5432 32.2466C19.9159 31.8799 18.975 32.0894 18.5568 34.2369C18.2954 35.3891 18.3477 35.5986 18.3477 35.5986C18.3477 35.5986 19.9159 35.651 20.491 36.3319C21.066 37.0128 21.2228 38.0603 21.1705 39.2126C20.3341 39.2126 20.3341 39.2126 20.3341 39.2126C20.3341 39.2126 20.6478 37.6937 19.6546 36.8557C18.5568 36.8033 17.0409 37.1699 17.3022 35.4939C17.459 33.8702 17.7204 30.8324 19.7591 30.7277Z" fill="white"/>
<path d="M13.3818 39.2124C13.3818 39.2124 13.4341 28.5801 17.4592 27.7944C18.7138 27.4802 20.2298 27.7944 20.2298 27.7944C20.2298 27.7944 21.3798 23.2901 23.8367 21.9807C22.8958 20.5665 22.7389 19.7285 22.6344 18.4715C22.5298 17.2144 23.2094 17.2144 23.523 18.4715C23.8367 19.7285 25.4049 21.9807 26.2936 23.0806C26.5027 23.4996 26.0845 23.8138 25.3004 23.2377C24.5163 22.6616 24.4117 22.5568 24.4117 22.5568C24.4117 22.5568 23.1571 23.9186 22.373 26.066C21.5889 28.2134 21.4321 29.3133 19.6547 29.1562C17.8774 28.9991 17.041 28.8419 15.9955 31.4607C14.9501 34.1319 14.5319 37.065 14.5841 39.16C13.5909 39.2124 13.3818 39.2124 13.3818 39.2124Z" fill="white"/>
<path d="M48.6148 0.611369C48.5102 0.19236 47.7784 0.454241 47.7784 0.454241C47.7784 0.454241 46.0533 1.13513 45.426 1.50176C39.5713 5.16809 38.7872 8.46779 37.3758 13.234C35.9121 18.0002 28.0187 19.9905 25.405 17.7384C22.7913 15.4862 23.8368 10.9818 26.3982 10.1438C28.9596 9.35819 30.0574 11.7675 30.0574 11.7675C30.0574 11.7675 29.221 13.653 30.1619 14.8577C31.7824 16.9527 33.6643 14.7529 33.8211 14.491C34.0302 14.2292 34.5007 13.2864 33.2984 14.0197C32.0961 14.7529 31.4165 12.396 31.1029 11.8199C30.7892 11.2437 30.7892 8.99155 27.7573 8.72967C24.7254 8.46779 22.739 11.2437 22.6344 12.8674C22.5299 14.4387 22.164 19.7287 28.1232 19.9382C34.0825 20.1477 37.2712 15.5386 38.0031 14.491C38.4735 22.4522 41.8191 23.814 42.0805 23.9711C42.3941 24.1283 42.4987 24.0759 42.185 23.7093C40.46 21.719 38.3167 17.6336 39.4668 11.2961C40.5122 5.01097 46.4715 2.28741 46.9943 1.97315C47.4647 1.60652 48.7193 1.03038 48.6148 0.611369ZM30.6324 12.9721L31.9915 14.5434C31.9915 14.5434 31.312 14.7006 30.8938 14.1768C30.4233 13.6007 30.6324 12.9721 30.6324 12.9721Z" fill="white"/>
</svg>
