<svg width="91" height="58" viewBox="0 0 91 58" fill="none" xmlns="http://www.w3.org/2000/svg">
<path d="M3.27427 56.5741V49.0726H1.23557V51.6144H0V47.8326H8.09301V51.6144H6.85743V49.0726H4.81874V56.5741H6.11609V57.814H2.0387V56.5741H3.27427Z" fill="white"/>
<path d="M11.2439 56.5741V49.0726H9.88477V47.8326H13.9622C14.8271 47.8326 15.5066 47.8946 16.0009 48.0186C16.4951 48.1426 16.9275 48.4526 17.2364 48.8246C17.5453 49.2586 17.7307 49.7545 17.7307 50.4365C17.7307 51.7384 17.0511 52.6064 15.692 52.9163L17.4218 56.5741H18.6573V57.814H16.4333L14.1475 53.1643H12.7266V56.5741H14.0239V57.814H9.88477V56.5741H11.2439ZM12.7266 51.9244H13.9004C14.4564 51.9244 14.8888 51.8624 15.136 51.8004C15.3831 51.7384 15.6302 51.5524 15.8155 51.3664C16.0009 51.1184 16.0626 50.8085 16.0626 50.4365C16.0626 50.1265 16.0009 49.8165 15.8155 49.6305C15.6302 49.3825 15.4448 49.2586 15.1977 49.1966C14.9506 49.1346 14.5799 49.1346 14.0239 49.1346H12.7266V51.9244Z" fill="white"/>
<path d="M26.9353 54.3423H23.3522L22.6108 56.6361H23.8464V57.8761H19.8926V56.6361H21.1282L23.8464 49.0106H22.6726V47.8947H27.7385V49.0106H26.5029L29.2829 56.6361H30.395V57.8761H26.5029V56.6361H27.7385L26.9353 54.3423ZM26.5647 53.1643L25.2673 49.0106H25.082L23.7229 53.1643H26.5647Z" fill="white"/>
<path d="M32.6194 56.5741V49.0726H31.3838V47.8326H39.1061V50.8705H37.8706V49.1346H34.1638V52.1104H37.3763V53.3503H34.1638V56.6361H35.4612V57.876H31.4456V56.6361H32.6194V56.5741Z" fill="white"/>
<path d="M45.3455 54.3423H41.7623L41.021 56.6361H42.2566V57.8761H38.3027V56.6361H39.5383L42.2566 49.0106H41.0828V47.8947H46.1486V49.0106H44.9131L47.6931 56.6361H48.8051V57.8761H44.8513V56.6361H46.0869L45.3455 54.3423ZM44.9748 53.1643L43.6775 49.0106H43.5539L42.133 53.1643H44.9748Z" fill="white"/>
<path d="M51.0288 56.5741V49.0726H49.7314V47.8326H53.8088V49.0726H52.5733V56.5741H55.6004V53.1643H57.0213V57.814H49.7314V56.5741H51.0288Z" fill="white"/>
<path d="M65.4856 53.0403H69.1305C69.1305 53.1643 69.1305 53.2883 69.1305 53.4123C69.1305 54.8382 68.6981 55.9541 67.7714 56.7601C66.8447 57.628 65.6709 58 64.1264 58C62.3349 58 60.9757 57.504 60.1108 56.4501C59.2459 55.3961 58.8135 54.2182 58.8135 52.7923C58.8135 51.3044 59.2459 50.1265 60.1726 49.1345C61.0993 48.1426 62.2731 47.6466 63.8175 47.6466C65.2385 47.6466 66.3505 48.0806 67.3389 48.9485V47.8326H68.6363V51.1184H67.3389C67.0918 50.5604 66.6594 50.0645 66.0416 49.6305C65.4238 49.1965 64.7442 49.0105 63.9411 49.0105C62.8291 49.0105 61.9642 49.3825 61.3464 50.1265C60.7286 50.8704 60.4197 51.7384 60.4197 52.7923C60.4197 53.9702 60.7904 54.9622 61.47 55.6441C62.2113 56.3261 63.0762 56.6981 64.0647 56.6981C64.8678 56.6981 65.5473 56.4501 66.1651 56.0161C66.7829 55.5821 67.1536 54.9622 67.2772 54.2802H65.4856V53.0403Z" fill="white"/>
<path d="M77.5936 54.3423H74.0104L73.269 56.6361H74.5046V57.8761H70.5508V56.6361H71.7864L74.5046 49.0106H73.269V47.8947H78.3349V49.0106H77.0993L79.8794 56.6361H80.9914V57.8761H77.0993V56.6361H78.3349L77.5936 54.3423ZM77.2229 53.1643L75.9255 49.0106H75.7402L74.3811 53.1643H77.2229Z" fill="white"/>
<path d="M83.5867 56.5741V49.0726H82.2275V47.8326H86.3049C87.1698 47.8326 87.8494 47.8946 88.3436 48.0186C88.8379 48.1426 89.2703 48.4526 89.5792 48.8246C89.8881 49.2586 90.0734 49.7545 90.0734 50.4365C90.0734 51.7384 89.3939 52.6064 88.0347 52.9163L89.7645 56.5741H91.0001V57.814H88.8379L86.5521 53.1643H85.1311V56.5741H86.4285V57.814H82.2893V56.5741H83.5867ZM85.0694 51.9244H86.2432C86.7992 51.9244 87.2316 51.8624 87.4787 51.8004C87.7258 51.7384 87.973 51.5524 88.1583 51.3664C88.3436 51.1184 88.4054 50.8085 88.4054 50.4365C88.4054 50.1265 88.3436 49.8165 88.1583 49.6305C87.973 49.3825 87.7876 49.2586 87.5405 49.1966C87.2934 49.1346 86.9227 49.1346 86.3667 49.1346H85.0694V51.9244Z" fill="white"/>
<path d="M54.4276 34.8835C55.2307 33.7056 56.3427 32.8376 56.3427 28.4979C56.2809 24.1582 57.3929 28.0019 57.3929 28.8079C57.4547 29.6138 57.9489 33.1476 55.7249 35.7515C56.4663 35.3175 58.9992 34.5115 59.6788 31.0397C60.2965 27.5679 60.6672 31.1637 60.5437 31.7837C60.4819 32.4037 60.2965 34.0156 58.9374 35.5035C59.8641 34.8835 62.8295 33.5196 63.6326 29.9858C64.4357 26.452 64.2504 26.452 64.2504 26.452C64.2504 26.452 64.5593 24.7161 65.0535 27.7539C65.4859 30.8538 63.9415 33.1476 63.3855 33.7676C63.8179 34.8215 65.4859 39.2852 66.5362 41.9511C67.2775 41.5791 70.0576 38.7893 70.9225 46.3528H69.2544C69.2544 46.3528 69.2544 43.749 69.2544 43.501C69.2544 43.253 68.6984 42.4471 68.0807 42.943C67.4629 43.377 67.0304 43.749 66.2891 43.687C65.5477 43.625 65.3006 43.005 64.8682 41.8891C64.4357 40.7732 63.0766 37.6113 62.397 35.0075C61.6557 35.7515 61.0997 36.4334 59.2463 36.9294C59.8023 37.3634 63.2001 39.8432 63.2619 46.2908C61.9646 46.2908 61.9646 46.2908 61.9646 46.2908L61.9028 44.4309C61.9028 44.4309 61.4086 40.4632 58.0725 37.4254C57.3929 37.6733 56.2809 38.2933 55.9103 38.1073C55.5396 37.8593 56.7134 36.9914 56.7134 36.9914C56.7134 36.9914 53.3773 38.1073 53.1302 40.6492C53.0067 41.8271 52.5124 40.4632 52.4506 39.8432C52.3889 39.1613 52.3271 38.0453 53.1302 36.7434C52.6978 37.1774 50.8444 38.1073 50.4119 41.2691C50.7826 41.3311 53.9333 41.2071 53.8098 46.3528C52.7595 46.3528 52.5742 46.3528 52.5742 46.3528L52.3889 43.997C52.3889 43.997 52.2653 43.005 50.8444 42.943C49.4235 42.881 48.8057 43.005 48.8675 41.0211C48.9293 39.1613 50.6591 35.8755 54.4276 34.8835Z" fill="white"/>
<path d="M69.7482 23.9722C68.142 25.2741 67.8949 25.3981 67.7095 25.7081C67.7095 25.7081 67.2771 25.8321 66.9064 29.4899C66.5357 33.2096 64.8059 33.1476 64.7441 33.0236C64.6824 32.8996 65.8562 31.5357 65.609 28.9939C65.3619 26.452 65.8562 24.7781 67.1535 23.9102C68.4509 23.0422 69.81 22.6703 69.9953 20.3764C69.9953 20.3764 66.7828 20.6244 66.7828 16.3466C66.7828 12.0689 72.4665 14.0528 72.7136 15.9127C73.0225 15.3547 75.123 13.2468 72.3429 11.139C71.8487 10.705 71.2309 10.333 70.7985 9.52706C70.4896 9.09309 70.2424 8.47312 69.6864 8.16314C69.1304 7.79117 67.5242 6.92322 65.1148 6.30325C65.1148 5.74529 66.1651 2.58348 62.0259 0.785588C61.0992 0.351614 62.3348 -0.516334 64.1264 0.41361C65.9179 1.40555 66.7828 2.39749 66.3504 5.18732C66.5975 5.24932 70.6749 5.80728 70.9838 8.96909C71.6634 9.27907 75.6172 10.457 75.0612 13.9908C74.0727 17.2766 71.9722 18.2685 71.9105 18.2065C71.8487 18.1445 71.4162 18.1445 72.3429 16.4706C72.3429 16.4706 69.6247 14.4868 68.5126 15.9127C67.4624 17.3386 68.9451 19.0745 70.366 19.4465C70.4278 19.1985 70.6749 18.9505 70.7985 18.9505C70.8602 18.9505 70.922 19.1365 70.8602 19.5705C70.8602 20.1904 71.4162 22.6703 69.7482 23.9722Z" fill="white"/>
<path d="M48.9293 24.7781C47.7555 23.1042 47.4466 21.3683 47.6319 18.6405C47.7555 16.4706 48.4968 19.6324 48.4968 19.6324C48.4968 19.6324 48.9293 22.2363 50.7209 24.5301C52.5742 26.824 52.5742 27.258 52.5742 27.258C52.5742 27.258 52.8213 25.0261 51.8329 22.9802C51.0298 20.6863 51.3387 19.7564 52.5125 22.1123C53.6245 24.4061 54.6747 24.2821 55.6014 27.3199C55.6014 27.3199 56.6516 29.8618 54.86 32.9616C54.1805 34.2635 53.9334 33.7056 54.2423 32.3416C54.5511 30.9777 54.7365 28.8079 54.0569 27.3199C53.8716 29.1798 53.8098 31.1017 51.7093 32.9616C51.0298 33.5816 50.968 33.5196 50.968 33.2096C50.968 32.8996 52.6978 30.6058 51.8947 29.1798C51.1533 27.7539 50.1031 26.514 48.9293 24.7781Z" fill="white"/>
<path d="M23.3528 36.3715C25.7622 36.3095 26.5653 38.9134 32.0019 37.9214C33.1756 37.6735 35.0908 36.4335 35.9557 31.9698C35.7086 31.6598 34.2877 30.4199 33.7934 30.0479C33.2992 29.7379 33.5463 28.932 34.7201 29.4899C35.8321 29.9859 36.7588 30.4199 39.1682 33.5197C41.5776 36.6195 45.6549 36.6815 45.6549 36.6815C45.6549 36.6815 48.1879 30.0479 49.6088 31.1638C49.6088 31.1638 49.7323 31.2878 49.3617 31.9698C48.991 32.6518 47.1994 35.5656 46.767 38.1074C46.3345 40.6493 46.0256 42.2612 46.2727 46.4149C45.2843 46.4149 45.1607 46.4149 45.1607 46.4149C45.1607 46.4149 44.2958 41.6412 45.2843 38.0454C44.4194 38.1694 43.3074 37.7354 42.6278 37.4255C42.3807 37.8594 41.2687 40.3393 39.23 40.6493C37.1913 41.0212 36.9441 40.7733 36.9441 40.7733C36.9441 40.7733 36.697 41.8272 37.5619 42.5712C37.9944 42.4472 41.454 41.2692 41.7011 44.431C41.7629 46.3529 41.7629 46.3529 41.7629 46.3529H40.4655C40.4655 46.3529 40.4038 44.431 40.2184 44.0591C40.0331 43.6871 39.1064 43.4391 37.6855 44.1831C36.2646 44.865 35.6468 42.2612 35.4615 41.6412C35.2761 41.0212 34.8437 39.0374 37.5002 39.0374C40.2184 39.0374 40.8362 38.7274 41.3304 36.9915C40.4038 36.5575 38.3033 35.3796 36.5735 32.7138C36.3264 33.8297 36.3264 36.8055 33.6699 38.7274C34.2877 41.0832 35.585 46.2909 35.585 46.2909L34.1641 46.3529C34.1641 46.3529 32.805 42.0132 32.3107 39.3474C31.0752 39.7813 28.048 40.2153 24.2795 38.1694C23.5382 37.7354 22.4262 37.9834 21.9319 40.5253C21.623 41.8892 21.6848 42.1372 21.6848 42.1372C21.6848 42.1372 23.5382 42.1992 24.2177 43.0051C24.8973 43.8111 25.0826 45.051 25.0209 46.4149C24.0324 46.4149 24.0324 46.4149 24.0324 46.4149C24.0324 46.4149 24.4031 44.617 23.2293 43.6251C21.9319 43.5631 20.1403 43.9971 20.4492 42.0132C20.6346 40.0913 20.9435 36.4955 23.3528 36.3715Z" fill="white"/>
<path d="M15.8154 46.4147C15.8154 46.4147 15.8772 33.8295 20.6342 32.8996C22.1169 32.5276 23.9084 32.8996 23.9084 32.8996C23.9084 32.8996 25.2676 27.5679 28.1712 26.018C27.0591 24.3441 26.8738 23.3521 26.7503 21.8642C26.6267 20.3763 27.4298 20.3763 27.8005 21.8642C28.1712 23.3521 30.0245 26.018 31.0748 27.3199C31.3219 27.8159 30.8276 28.1878 29.901 27.5059C28.9743 26.8239 28.8507 26.6999 28.8507 26.6999C28.8507 26.6999 27.368 28.3118 26.4414 30.8537C25.5147 33.3955 25.3293 34.6975 23.2289 34.5115C21.1284 34.3255 20.1399 34.1395 18.9044 37.2393C17.6688 40.4011 17.1746 43.8729 17.2363 46.3527C16.0625 46.4147 15.8154 46.4147 15.8154 46.4147Z" fill="white"/>
<path d="M57.4538 0.723679C57.3302 0.227709 56.4653 0.53769 56.4653 0.53769C56.4653 0.53769 54.4266 1.34364 53.6853 1.77761C46.7661 6.11735 45.8394 10.0231 44.1714 15.6648C42.4416 21.3064 33.113 23.6623 30.0241 20.9965C26.9351 18.3306 28.1707 12.9989 31.1979 12.007C34.225 11.0771 35.5224 13.9289 35.5224 13.9289C35.5224 13.9289 34.5339 16.1607 35.6459 17.5867C37.5611 20.0665 39.7851 17.4627 39.9704 17.1527C40.2176 16.8427 40.7736 15.7268 39.3526 16.5947C37.9317 17.4627 37.1286 14.6728 36.7579 13.9909C36.3873 13.3089 36.3873 10.6431 32.8041 10.3331C29.2209 10.0231 26.8734 13.3089 26.7498 15.2308C26.6262 17.0907 26.1938 23.3523 33.2366 23.6003C40.2793 23.8483 44.0478 18.3926 44.9127 17.1527C45.4687 26.5761 49.4226 28.188 49.7315 28.374C50.1021 28.56 50.2257 28.498 49.855 28.064C47.8163 25.7082 45.2834 20.8725 46.6425 13.3709C47.8781 5.93136 54.9209 2.70756 55.5387 2.33558C56.0947 1.90161 57.5774 1.21965 57.4538 0.723679ZM36.2019 15.3548L37.8082 17.2147C37.8082 17.2147 37.0051 17.4007 36.5108 16.7807C35.9548 16.0987 36.2019 15.3548 36.2019 15.3548Z" fill="white"/>
</svg>
