<svg width="21" height="33" viewBox="0 0 21 33" fill="none" xmlns="http://www.w3.org/2000/svg">
<g clip-path="url(#clip0)">
<path d="M0.647512 10.3124H20.0734C20.4308 10.3124 20.7209 9.85041 20.7209 9.28122C20.7209 8.71195 20.4308 8.25 20.0734 8.25H0.647512C0.290062 8.25 0 8.71204 0 9.28122C0 9.85041 0.290116 10.3124 0.647512 10.3124Z" fill="white"/>
<path d="M20.0734 15.4688H0.647512C0.290062 15.4688 0 15.9308 0 16.5C0 17.0692 0.290116 17.5312 0.647512 17.5312H20.0734C20.4308 17.5312 20.7209 17.0692 20.7209 16.5C20.7209 15.9308 20.4308 15.4688 20.0734 15.4688Z" fill="white"/>
<path d="M20.0737 22.6875H7.1231C6.76565 22.6875 6.47559 23.1495 6.47559 23.7187C6.47559 24.288 6.7657 24.7499 7.1231 24.7499H20.0737C20.4311 24.7499 20.7212 24.2879 20.7212 23.7187C20.7212 23.1495 20.4311 22.6875 20.0737 22.6875Z" fill="white"/>
</g>
<defs>
<clipPath id="clip0">
<rect width="20.7209" height="33" fill="white"/>
</clipPath>
</defs>
</svg>
