<svg width="234" height="71" viewBox="0 0 234 71" fill="none" xmlns="http://www.w3.org/2000/svg">
<path d="M224.043 70.8674H9.0097C4.0342 70.8674 0 66.8383 0 61.8628V9.00453C0 4.02902 4.0342 0 9.0097 0H224.043C229.018 0 233.052 4.02902 233.052 9.00453V61.8628C233.052 66.8383 229.018 70.8674 224.043 70.8674Z" fill="black"/>
<path d="M75.9994 44.6544H68.2994L66.7814 48.2184H63.8334L70.7634 32.8184H73.5794L80.5314 48.2184H77.5394L75.9994 44.6544ZM75.0534 42.4104L72.1494 35.6784L69.2674 42.4104H75.0534ZM88.7379 36.3384C89.8819 36.3384 90.9012 36.5877 91.7959 37.0864C92.7052 37.585 93.4165 38.289 93.9299 39.1984C94.4432 40.1077 94.6999 41.1564 94.6999 42.3444C94.6999 43.5324 94.4432 44.5884 93.9299 45.5124C93.4165 46.4217 92.7052 47.1257 91.7959 47.6244C90.9012 48.1231 89.8819 48.3724 88.7379 48.3724C87.1539 48.3724 85.8999 47.8444 84.9759 46.7884V52.4864H82.2259V36.4704H84.8439V38.0104C85.2985 37.453 85.8559 37.035 86.5159 36.7564C87.1905 36.4777 87.9312 36.3384 88.7379 36.3384ZM88.4299 46.0184C89.4419 46.0184 90.2705 45.6811 90.9159 45.0064C91.5759 44.3317 91.9059 43.4444 91.9059 42.3444C91.9059 41.2444 91.5759 40.3571 90.9159 39.6824C90.2705 39.0077 89.4419 38.6704 88.4299 38.6704C87.7699 38.6704 87.1759 38.8244 86.6479 39.1324C86.1199 39.4257 85.7019 39.8511 85.3939 40.4084C85.0859 40.9657 84.9319 41.6111 84.9319 42.3444C84.9319 43.0777 85.0859 43.7231 85.3939 44.2804C85.7019 44.8377 86.1199 45.2704 86.6479 45.5784C87.1759 45.8717 87.7699 46.0184 88.4299 46.0184ZM103.82 36.3384C104.964 36.3384 105.983 36.5877 106.878 37.0864C107.787 37.585 108.499 38.289 109.012 39.1984C109.525 40.1077 109.782 41.1564 109.782 42.3444C109.782 43.5324 109.525 44.5884 109.012 45.5124C108.499 46.4217 107.787 47.1257 106.878 47.6244C105.983 48.1231 104.964 48.3724 103.82 48.3724C102.236 48.3724 100.982 47.8444 100.058 46.7884V52.4864H97.3079V36.4704H99.9259V38.0104C100.381 37.453 100.938 37.035 101.598 36.7564C102.273 36.4777 103.013 36.3384 103.82 36.3384ZM103.512 46.0184C104.524 46.0184 105.353 45.6811 105.998 45.0064C106.658 44.3317 106.988 43.4444 106.988 42.3444C106.988 41.2444 106.658 40.3571 105.998 39.6824C105.353 39.0077 104.524 38.6704 103.512 38.6704C102.852 38.6704 102.258 38.8244 101.73 39.1324C101.202 39.4257 100.784 39.8511 100.476 40.4084C100.168 40.9657 100.014 41.6111 100.014 42.3444C100.014 43.0777 100.168 43.7231 100.476 44.2804C100.784 44.8377 101.202 45.2704 101.73 45.5784C102.258 45.8717 102.852 46.0184 103.512 46.0184ZM123.508 48.4384C122.32 48.4384 121.169 48.2697 120.054 47.9324C118.954 47.5951 118.081 47.1477 117.436 46.5904L118.426 44.3684C119.057 44.8671 119.827 45.2777 120.736 45.6004C121.66 45.9084 122.584 46.0624 123.508 46.0624C124.652 46.0624 125.503 45.8791 126.06 45.5124C126.632 45.1457 126.918 44.6617 126.918 44.0604C126.918 43.6204 126.757 43.2611 126.434 42.9824C126.126 42.6891 125.73 42.4617 125.246 42.3004C124.762 42.1391 124.102 41.9557 123.266 41.7504C122.093 41.4717 121.139 41.193 120.406 40.9144C119.687 40.6357 119.064 40.2031 118.536 39.6164C118.023 39.0151 117.766 38.2084 117.766 37.1964C117.766 36.3457 117.993 35.5757 118.448 34.8864C118.917 34.1824 119.614 33.625 120.538 33.2144C121.477 32.8037 122.621 32.5984 123.97 32.5984C124.909 32.5984 125.833 32.7157 126.742 32.9504C127.651 33.185 128.436 33.5224 129.096 33.9624L128.194 36.1844C127.519 35.7884 126.815 35.4877 126.082 35.2824C125.349 35.077 124.637 34.9744 123.948 34.9744C122.819 34.9744 121.975 35.165 121.418 35.5464C120.875 35.9277 120.604 36.4337 120.604 37.0644C120.604 37.5044 120.758 37.8637 121.066 38.1424C121.389 38.4211 121.792 38.6411 122.276 38.8024C122.76 38.9637 123.42 39.147 124.256 39.3524C125.4 39.6164 126.339 39.8951 127.072 40.1884C127.805 40.4671 128.429 40.8997 128.942 41.4864C129.47 42.0731 129.734 42.8651 129.734 43.8624C129.734 44.7131 129.499 45.4831 129.03 46.1724C128.575 46.8617 127.879 47.4117 126.94 47.8224C126.001 48.2331 124.857 48.4384 123.508 48.4384ZM139.368 47.5804C139.045 47.8444 138.649 48.0424 138.18 48.1744C137.725 48.3064 137.241 48.3724 136.728 48.3724C135.437 48.3724 134.44 48.0351 133.736 47.3604C133.032 46.6857 132.68 45.7031 132.68 44.4124V38.7584H130.744V36.5584H132.68V33.8744H135.43V36.5584H138.576V38.7584H135.43V44.3464C135.43 44.9184 135.569 45.3584 135.848 45.6664C136.127 45.9597 136.53 46.1064 137.058 46.1064C137.674 46.1064 138.187 45.9451 138.598 45.6224L139.368 47.5804ZM146.523 48.3724C145.335 48.3724 144.265 48.1157 143.311 47.6024C142.358 47.0891 141.61 46.3777 141.067 45.4684C140.539 44.5444 140.275 43.5031 140.275 42.3444C140.275 41.1857 140.539 40.1517 141.067 39.2424C141.61 38.333 142.358 37.6217 143.311 37.1084C144.265 36.5951 145.335 36.3384 146.523 36.3384C147.726 36.3384 148.804 36.5951 149.757 37.1084C150.711 37.6217 151.451 38.333 151.979 39.2424C152.522 40.1517 152.793 41.1857 152.793 42.3444C152.793 43.5031 152.522 44.5444 151.979 45.4684C151.451 46.3777 150.711 47.0891 149.757 47.6024C148.804 48.1157 147.726 48.3724 146.523 48.3724ZM146.523 46.0184C147.535 46.0184 148.371 45.6811 149.031 45.0064C149.691 44.3317 150.021 43.4444 150.021 42.3444C150.021 41.2444 149.691 40.3571 149.031 39.6824C148.371 39.0077 147.535 38.6704 146.523 38.6704C145.511 38.6704 144.675 39.0077 144.015 39.6824C143.37 40.3571 143.047 41.2444 143.047 42.3444C143.047 43.4444 143.37 44.3317 144.015 45.0064C144.675 45.6811 145.511 46.0184 146.523 46.0184ZM158.041 38.1864C158.833 36.9544 160.226 36.3384 162.221 36.3384V38.9564C161.986 38.9124 161.774 38.8904 161.583 38.8904C160.512 38.8904 159.676 39.2057 159.075 39.8364C158.474 40.4524 158.173 41.3471 158.173 42.5204V48.2184H155.423V36.4704H158.041V38.1864ZM175.491 42.4104C175.491 42.6011 175.476 42.8724 175.447 43.2244H166.229C166.39 44.0897 166.808 44.7791 167.483 45.2924C168.172 45.7911 169.023 46.0404 170.035 46.0404C171.325 46.0404 172.389 45.6151 173.225 44.7644L174.699 46.4584C174.171 47.0891 173.503 47.5657 172.697 47.8884C171.89 48.2111 170.981 48.3724 169.969 48.3724C168.678 48.3724 167.541 48.1157 166.559 47.6024C165.576 47.0891 164.813 46.3777 164.271 45.4684C163.743 44.5444 163.479 43.5031 163.479 42.3444C163.479 41.2004 163.735 40.1737 164.249 39.2644C164.777 38.3404 165.503 37.6217 166.427 37.1084C167.351 36.5951 168.392 36.3384 169.551 36.3384C170.695 36.3384 171.714 36.5951 172.609 37.1084C173.518 37.6071 174.222 38.3184 174.721 39.2424C175.234 40.1517 175.491 41.2077 175.491 42.4104ZM169.551 38.5384C168.671 38.5384 167.923 38.8024 167.307 39.3304C166.705 39.8437 166.339 40.5331 166.207 41.3984H172.873C172.755 40.5477 172.396 39.8584 171.795 39.3304C171.193 38.8024 170.445 38.5384 169.551 38.5384Z" fill="white"/>
<path d="M14.5695 28.9535C10.7888 35.5168 13.1886 45.4678 17.3728 51.5036C19.4571 54.5241 21.5725 57.2342 24.4637 57.2342C24.5206 57.2342 24.5775 57.2342 24.6292 57.229C25.9894 57.1773 26.9721 56.7584 27.9238 56.355C28.9892 55.8998 30.0909 55.4292 31.8235 55.4292C33.4682 55.4292 34.5181 55.8843 35.5319 56.3239C36.5352 56.7532 37.5645 57.2032 39.0902 57.1721C42.3486 57.1101 44.3502 54.193 46.119 51.6122C47.9603 48.9176 48.8861 46.3005 49.1964 45.3075L49.2067 45.2661C49.2688 45.0902 49.1809 44.8937 49.0154 44.8161C49.0102 44.8109 48.9895 44.8058 48.9843 44.8006C48.4102 44.573 43.3778 42.3387 43.3261 36.246C43.2744 31.3016 47.1017 28.6793 47.8672 28.2035L47.9034 28.188C47.9861 28.1311 48.0482 28.0483 48.0689 27.9501C48.0844 27.8518 48.0637 27.7535 48.0068 27.6708C45.3691 23.8073 41.3194 23.228 39.6902 23.1556C39.4523 23.1297 39.2092 23.1194 38.9661 23.1194C37.0524 23.1194 35.2164 23.8435 33.7423 24.4227C32.7234 24.821 31.8494 25.1727 31.2442 25.1727C30.5615 25.1727 29.6771 24.8158 28.653 24.4124C27.2876 23.8745 25.736 23.2539 24.0965 23.2539H23.9775C20.1657 23.3108 16.5556 25.4934 14.5695 28.9535Z" fill="white"/>
<path d="M39.7506 12.5213C37.4387 12.6195 34.6665 14.0418 33.0114 15.9814C31.6046 17.6106 30.2288 20.3311 30.5909 23.0723C30.6116 23.2429 30.7512 23.3774 30.9219 23.3929C31.0822 23.4033 31.2374 23.4084 31.3977 23.4084C33.6579 23.4084 36.0939 22.1568 37.7593 20.15C39.5127 18.0192 40.3971 15.2935 40.1333 12.8471C40.1074 12.6557 39.9419 12.5161 39.7506 12.5213Z" fill="white"/>
<path d="M65.7128 16.5H69.8678C70.9578 16.5 71.9228 16.725 72.7628 17.175C73.6128 17.625 74.2728 18.25 74.7428 19.05C75.2128 19.84 75.4478 20.74 75.4478 21.75C75.4478 22.76 75.2128 23.665 74.7428 24.465C74.2728 25.255 73.6128 25.875 72.7628 26.325C71.9228 26.775 70.9578 27 69.8678 27H65.7128V16.5ZM69.8078 26.31C70.7778 26.31 71.6328 26.12 72.3728 25.74C73.1128 25.35 73.6828 24.81 74.0828 24.12C74.4828 23.43 74.6828 22.64 74.6828 21.75C74.6828 20.86 74.4828 20.07 74.0828 19.38C73.6828 18.69 73.1128 18.155 72.3728 17.775C71.6328 17.385 70.7778 17.19 69.8078 17.19H66.4778V26.31H69.8078ZM84.4804 23.265H77.7454C77.7654 23.875 77.9204 24.42 78.2104 24.9C78.5004 25.37 78.8904 25.735 79.3804 25.995C79.8804 26.255 80.4404 26.385 81.0604 26.385C81.5704 26.385 82.0404 26.295 82.4704 26.115C82.9104 25.925 83.2754 25.65 83.5654 25.29L84.0004 25.785C83.6604 26.195 83.2304 26.51 82.7104 26.73C82.2004 26.95 81.6454 27.06 81.0454 27.06C80.2654 27.06 79.5704 26.89 78.9604 26.55C78.3504 26.21 77.8704 25.74 77.5204 25.14C77.1804 24.54 77.0104 23.855 77.0104 23.085C77.0104 22.325 77.1704 21.645 77.4904 21.045C77.8204 20.435 78.2704 19.96 78.8404 19.62C79.4104 19.28 80.0504 19.11 80.7604 19.11C81.4704 19.11 82.1054 19.28 82.6654 19.62C83.2354 19.95 83.6804 20.415 84.0004 21.015C84.3304 21.615 84.4954 22.295 84.4954 23.055L84.4804 23.265ZM80.7604 19.77C80.2104 19.77 79.7154 19.895 79.2754 20.145C78.8354 20.385 78.4804 20.73 78.2104 21.18C77.9504 21.62 77.8004 22.12 77.7604 22.68H83.7604C83.7304 22.12 83.5804 21.62 83.3104 21.18C83.0404 20.74 82.6854 20.395 82.2454 20.145C81.8054 19.895 81.3104 19.77 80.7604 19.77ZM88.7956 27.06C88.1656 27.06 87.5656 26.965 86.9956 26.775C86.4256 26.585 85.9806 26.345 85.6606 26.055L86.0056 25.455C86.3256 25.725 86.7356 25.95 87.2356 26.13C87.7456 26.31 88.2756 26.4 88.8256 26.4C89.6156 26.4 90.1956 26.27 90.5656 26.01C90.9456 25.75 91.1356 25.39 91.1356 24.93C91.1356 24.6 91.0306 24.34 90.8206 24.15C90.6206 23.96 90.3706 23.82 90.0706 23.73C89.7706 23.64 89.3556 23.545 88.8256 23.445C88.2056 23.335 87.7056 23.215 87.3256 23.085C86.9456 22.955 86.6206 22.745 86.3506 22.455C86.0806 22.165 85.9456 21.765 85.9456 21.255C85.9456 20.635 86.2006 20.125 86.7106 19.725C87.2306 19.315 87.9656 19.11 88.9156 19.11C89.4156 19.11 89.9106 19.18 90.4006 19.32C90.8906 19.46 91.2906 19.645 91.6006 19.875L91.2556 20.475C90.9356 20.245 90.5706 20.07 90.1606 19.95C89.7506 19.83 89.3306 19.77 88.9006 19.77C88.1706 19.77 87.6206 19.905 87.2506 20.175C86.8806 20.445 86.6956 20.8 86.6956 21.24C86.6956 21.59 86.8006 21.865 87.0106 22.065C87.2206 22.255 87.4756 22.4 87.7756 22.5C88.0856 22.59 88.5156 22.69 89.0656 22.8C89.6756 22.91 90.1656 23.03 90.5356 23.16C90.9156 23.28 91.2356 23.48 91.4956 23.76C91.7556 24.04 91.8856 24.425 91.8856 24.915C91.8856 25.565 91.6156 26.085 91.0756 26.475C90.5356 26.865 89.7756 27.06 88.7956 27.06ZM97.0837 27.06C96.3237 27.06 95.6437 26.89 95.0437 26.55C94.4437 26.21 93.9737 25.74 93.6337 25.14C93.2937 24.53 93.1237 23.845 93.1237 23.085C93.1237 22.315 93.2937 21.63 93.6337 21.03C93.9737 20.42 94.4437 19.95 95.0437 19.62C95.6437 19.28 96.3237 19.11 97.0837 19.11C97.7137 19.11 98.2837 19.235 98.7937 19.485C99.3137 19.725 99.7337 20.08 100.054 20.55L99.4987 20.955C99.2187 20.565 98.8687 20.275 98.4487 20.085C98.0387 19.885 97.5837 19.785 97.0837 19.785C96.4737 19.785 95.9237 19.925 95.4337 20.205C94.9537 20.475 94.5737 20.86 94.2937 21.36C94.0237 21.86 93.8887 22.435 93.8887 23.085C93.8887 23.735 94.0237 24.31 94.2937 24.81C94.5737 25.31 94.9537 25.7 95.4337 25.98C95.9237 26.25 96.4737 26.385 97.0837 26.385C97.5837 26.385 98.0387 26.29 98.4487 26.1C98.8687 25.9 99.2187 25.605 99.4987 25.215L100.054 25.62C99.7337 26.09 99.3137 26.45 98.7937 26.7C98.2837 26.94 97.7137 27.06 97.0837 27.06ZM104.939 19.11C105.909 19.11 106.654 19.36 107.174 19.86C107.694 20.35 107.954 21.075 107.954 22.035V27H107.234V25.605C106.984 26.065 106.619 26.425 106.139 26.685C105.659 26.935 105.084 27.06 104.414 27.06C103.544 27.06 102.854 26.855 102.344 26.445C101.844 26.035 101.594 25.495 101.594 24.825C101.594 24.175 101.824 23.65 102.284 23.25C102.754 22.84 103.499 22.635 104.519 22.635H107.204V22.005C107.204 21.275 107.004 20.72 106.604 20.34C106.214 19.96 105.639 19.77 104.879 19.77C104.359 19.77 103.859 19.86 103.379 20.04C102.909 20.22 102.509 20.46 102.179 20.76L101.804 20.22C102.194 19.87 102.664 19.6 103.214 19.41C103.764 19.21 104.339 19.11 104.939 19.11ZM104.519 26.445C105.169 26.445 105.719 26.295 106.169 25.995C106.629 25.695 106.974 25.26 107.204 24.69V23.22H104.534C103.764 23.22 103.204 23.36 102.854 23.64C102.514 23.92 102.344 24.305 102.344 24.795C102.344 25.305 102.534 25.71 102.914 26.01C103.294 26.3 103.829 26.445 104.519 26.445ZM111.764 20.88C112.004 20.31 112.379 19.875 112.889 19.575C113.399 19.265 114.019 19.11 114.749 19.11V19.845L114.569 19.83C113.699 19.83 113.019 20.105 112.529 20.655C112.039 21.195 111.794 21.95 111.794 22.92V27H111.044V19.17H111.764V20.88ZM123.792 19.17V26.16C123.792 27.46 123.477 28.42 122.847 29.04C122.217 29.66 121.267 29.97 119.997 29.97C119.277 29.97 118.597 29.86 117.957 29.64C117.317 29.42 116.802 29.115 116.412 28.725L116.817 28.155C117.207 28.515 117.677 28.795 118.227 28.995C118.777 29.195 119.362 29.295 119.982 29.295C121.022 29.295 121.792 29.045 122.292 28.545C122.792 28.055 123.042 27.29 123.042 26.25V24.93C122.722 25.5 122.277 25.94 121.707 26.25C121.137 26.56 120.497 26.715 119.787 26.715C119.057 26.715 118.392 26.555 117.792 26.235C117.202 25.905 116.737 25.45 116.397 24.87C116.057 24.29 115.887 23.635 115.887 22.905C115.887 22.175 116.057 21.52 116.397 20.94C116.737 20.36 117.202 19.91 117.792 19.59C118.392 19.27 119.057 19.11 119.787 19.11C120.507 19.11 121.157 19.27 121.737 19.59C122.317 19.91 122.762 20.36 123.072 20.94V19.17H123.792ZM119.847 26.04C120.457 26.04 121.007 25.91 121.497 25.65C121.987 25.38 122.367 25.01 122.637 24.54C122.917 24.06 123.057 23.515 123.057 22.905C123.057 22.295 122.917 21.755 122.637 21.285C122.367 20.815 121.987 20.45 121.497 20.19C121.007 19.92 120.457 19.785 119.847 19.785C119.237 19.785 118.687 19.92 118.197 20.19C117.717 20.45 117.337 20.815 117.057 21.285C116.787 21.755 116.652 22.295 116.652 22.905C116.652 23.515 116.787 24.06 117.057 24.54C117.337 25.01 117.717 25.38 118.197 25.65C118.687 25.91 119.237 26.04 119.847 26.04ZM129.607 19.11C130.577 19.11 131.322 19.36 131.842 19.86C132.362 20.35 132.622 21.075 132.622 22.035V27H131.902V25.605C131.652 26.065 131.287 26.425 130.807 26.685C130.327 26.935 129.752 27.06 129.082 27.06C128.212 27.06 127.522 26.855 127.012 26.445C126.512 26.035 126.262 25.495 126.262 24.825C126.262 24.175 126.492 23.65 126.952 23.25C127.422 22.84 128.167 22.635 129.187 22.635H131.872V22.005C131.872 21.275 131.672 20.72 131.272 20.34C130.882 19.96 130.307 19.77 129.547 19.77C129.027 19.77 128.527 19.86 128.047 20.04C127.577 20.22 127.177 20.46 126.847 20.76L126.472 20.22C126.862 19.87 127.332 19.6 127.882 19.41C128.432 19.21 129.007 19.11 129.607 19.11ZM129.187 26.445C129.837 26.445 130.387 26.295 130.837 25.995C131.297 25.695 131.642 25.26 131.872 24.69V23.22H129.202C128.432 23.22 127.872 23.36 127.522 23.64C127.182 23.92 127.012 24.305 127.012 24.795C127.012 25.305 127.202 25.71 127.582 26.01C127.962 26.3 128.497 26.445 129.187 26.445ZM146.18 23.265H139.445C139.465 23.875 139.62 24.42 139.91 24.9C140.2 25.37 140.59 25.735 141.08 25.995C141.58 26.255 142.14 26.385 142.76 26.385C143.27 26.385 143.74 26.295 144.17 26.115C144.61 25.925 144.975 25.65 145.265 25.29L145.7 25.785C145.36 26.195 144.93 26.51 144.41 26.73C143.9 26.95 143.345 27.06 142.745 27.06C141.965 27.06 141.27 26.89 140.66 26.55C140.05 26.21 139.57 25.74 139.22 25.14C138.88 24.54 138.71 23.855 138.71 23.085C138.71 22.325 138.87 21.645 139.19 21.045C139.52 20.435 139.97 19.96 140.54 19.62C141.11 19.28 141.75 19.11 142.46 19.11C143.17 19.11 143.805 19.28 144.365 19.62C144.935 19.95 145.38 20.415 145.7 21.015C146.03 21.615 146.195 22.295 146.195 23.055L146.18 23.265ZM142.46 19.77C141.91 19.77 141.415 19.895 140.975 20.145C140.535 20.385 140.18 20.73 139.91 21.18C139.65 21.62 139.5 22.12 139.46 22.68H145.46C145.43 22.12 145.28 21.62 145.01 21.18C144.74 20.74 144.385 20.395 143.945 20.145C143.505 19.895 143.01 19.77 142.46 19.77ZM152.34 19.11C153.32 19.11 154.095 19.395 154.665 19.965C155.235 20.535 155.52 21.355 155.52 22.425V27H154.77V22.485C154.77 21.605 154.545 20.935 154.095 20.475C153.655 20.015 153.035 19.785 152.235 19.785C151.315 19.785 150.59 20.06 150.06 20.61C149.53 21.16 149.265 21.9 149.265 22.83V27H148.515V19.17H149.235V20.865C149.505 20.315 149.905 19.885 150.435 19.575C150.975 19.265 151.61 19.11 152.34 19.11Z" fill="white"/>
</svg>
