<svg width="479" height="71" viewBox="0 0 479 71" fill="none" xmlns="http://www.w3.org/2000/svg">
<path d="M224.043 70.8674H9.0097C4.0342 70.8674 0 66.8383 0 61.8628V9.00453C0 4.02902 4.0342 0 9.0097 0H224.043C229.018 0 233.052 4.02902 233.052 9.00453V61.8628C233.052 66.8383 229.018 70.8674 224.043 70.8674Z" fill="black"/>
<path d="M14.5695 28.9535C10.7888 35.5168 13.1886 45.4678 17.3728 51.5036C19.4571 54.5241 21.5725 57.2342 24.4637 57.2342C24.5206 57.2342 24.5775 57.2342 24.6292 57.229C25.9894 57.1773 26.9721 56.7584 27.9238 56.355C28.9892 55.8998 30.0909 55.4292 31.8235 55.4292C33.4682 55.4292 34.5181 55.8843 35.5319 56.3239C36.5352 56.7532 37.5645 57.2032 39.0902 57.1721C42.3486 57.1101 44.3502 54.193 46.119 51.6122C47.9603 48.9176 48.8861 46.3005 49.1964 45.3075L49.2067 45.2661C49.2688 45.0902 49.1809 44.8937 49.0154 44.8161C49.0102 44.8109 48.9895 44.8058 48.9843 44.8006C48.4102 44.573 43.3778 42.3387 43.3261 36.246C43.2744 31.3016 47.1017 28.6793 47.8672 28.2035L47.9034 28.188C47.9861 28.1311 48.0482 28.0483 48.0689 27.9501C48.0844 27.8518 48.0637 27.7535 48.0068 27.6708C45.3691 23.8073 41.3194 23.228 39.6902 23.1556C39.4523 23.1297 39.2092 23.1194 38.9661 23.1194C37.0524 23.1194 35.2164 23.8435 33.7423 24.4227C32.7234 24.821 31.8494 25.1727 31.2442 25.1727C30.5615 25.1727 29.6771 24.8158 28.653 24.4124C27.2876 23.8745 25.736 23.2539 24.0965 23.2539H23.9775C20.1657 23.3108 16.5556 25.4934 14.5695 28.9535Z" fill="white"/>
<path d="M39.7506 12.5213C37.4387 12.6195 34.6665 14.0418 33.0114 15.9814C31.6046 17.6106 30.2288 20.3311 30.5909 23.0723C30.6116 23.2429 30.7512 23.3774 30.9219 23.3929C31.0822 23.4033 31.2374 23.4084 31.3977 23.4084C33.6579 23.4084 36.0939 22.1568 37.7593 20.15C39.5127 18.0192 40.3971 15.2935 40.1333 12.8471C40.1074 12.6557 39.9419 12.5161 39.7506 12.5213Z" fill="white"/>
<path d="M469.71 70.8674H254.677C249.701 70.8674 245.667 66.8383 245.667 61.8628V9.00453C245.667 4.02902 249.701 0 254.677 0H469.71C474.685 0 478.72 4.02902 478.72 9.00453V61.8628C478.72 66.8383 474.685 70.8674 469.71 70.8674Z" fill="black"/>
<path d="M65.7128 16.5H69.8678C70.9578 16.5 71.9228 16.725 72.7628 17.175C73.6128 17.625 74.2728 18.25 74.7428 19.05C75.2128 19.84 75.4478 20.74 75.4478 21.75C75.4478 22.76 75.2128 23.665 74.7428 24.465C74.2728 25.255 73.6128 25.875 72.7628 26.325C71.9228 26.775 70.9578 27 69.8678 27H65.7128V16.5ZM69.8078 26.31C70.7778 26.31 71.6328 26.12 72.3728 25.74C73.1128 25.35 73.6828 24.81 74.0828 24.12C74.4828 23.43 74.6828 22.64 74.6828 21.75C74.6828 20.86 74.4828 20.07 74.0828 19.38C73.6828 18.69 73.1128 18.155 72.3728 17.775C71.6328 17.385 70.7778 17.19 69.8078 17.19H66.4778V26.31H69.8078ZM84.4804 23.265H77.7454C77.7654 23.875 77.9204 24.42 78.2104 24.9C78.5004 25.37 78.8904 25.735 79.3804 25.995C79.8804 26.255 80.4404 26.385 81.0604 26.385C81.5704 26.385 82.0404 26.295 82.4704 26.115C82.9104 25.925 83.2754 25.65 83.5654 25.29L84.0004 25.785C83.6604 26.195 83.2304 26.51 82.7104 26.73C82.2004 26.95 81.6454 27.06 81.0454 27.06C80.2654 27.06 79.5704 26.89 78.9604 26.55C78.3504 26.21 77.8704 25.74 77.5204 25.14C77.1804 24.54 77.0104 23.855 77.0104 23.085C77.0104 22.325 77.1704 21.645 77.4904 21.045C77.8204 20.435 78.2704 19.96 78.8404 19.62C79.4104 19.28 80.0504 19.11 80.7604 19.11C81.4704 19.11 82.1054 19.28 82.6654 19.62C83.2354 19.95 83.6804 20.415 84.0004 21.015C84.3304 21.615 84.4954 22.295 84.4954 23.055L84.4804 23.265ZM80.7604 19.77C80.2104 19.77 79.7154 19.895 79.2754 20.145C78.8354 20.385 78.4804 20.73 78.2104 21.18C77.9504 21.62 77.8004 22.12 77.7604 22.68H83.7604C83.7304 22.12 83.5804 21.62 83.3104 21.18C83.0404 20.74 82.6854 20.395 82.2454 20.145C81.8054 19.895 81.3104 19.77 80.7604 19.77ZM88.7956 27.06C88.1656 27.06 87.5656 26.965 86.9956 26.775C86.4256 26.585 85.9806 26.345 85.6606 26.055L86.0056 25.455C86.3256 25.725 86.7356 25.95 87.2356 26.13C87.7456 26.31 88.2756 26.4 88.8256 26.4C89.6156 26.4 90.1956 26.27 90.5656 26.01C90.9456 25.75 91.1356 25.39 91.1356 24.93C91.1356 24.6 91.0306 24.34 90.8206 24.15C90.6206 23.96 90.3706 23.82 90.0706 23.73C89.7706 23.64 89.3556 23.545 88.8256 23.445C88.2056 23.335 87.7056 23.215 87.3256 23.085C86.9456 22.955 86.6206 22.745 86.3506 22.455C86.0806 22.165 85.9456 21.765 85.9456 21.255C85.9456 20.635 86.2006 20.125 86.7106 19.725C87.2306 19.315 87.9656 19.11 88.9156 19.11C89.4156 19.11 89.9106 19.18 90.4006 19.32C90.8906 19.46 91.2906 19.645 91.6006 19.875L91.2556 20.475C90.9356 20.245 90.5706 20.07 90.1606 19.95C89.7506 19.83 89.3306 19.77 88.9006 19.77C88.1706 19.77 87.6206 19.905 87.2506 20.175C86.8806 20.445 86.6956 20.8 86.6956 21.24C86.6956 21.59 86.8006 21.865 87.0106 22.065C87.2206 22.255 87.4756 22.4 87.7756 22.5C88.0856 22.59 88.5156 22.69 89.0656 22.8C89.6756 22.91 90.1656 23.03 90.5356 23.16C90.9156 23.28 91.2356 23.48 91.4956 23.76C91.7556 24.04 91.8856 24.425 91.8856 24.915C91.8856 25.565 91.6156 26.085 91.0756 26.475C90.5356 26.865 89.7756 27.06 88.7956 27.06ZM97.0837 27.06C96.3237 27.06 95.6437 26.89 95.0437 26.55C94.4437 26.21 93.9737 25.74 93.6337 25.14C93.2937 24.53 93.1237 23.845 93.1237 23.085C93.1237 22.315 93.2937 21.63 93.6337 21.03C93.9737 20.42 94.4437 19.95 95.0437 19.62C95.6437 19.28 96.3237 19.11 97.0837 19.11C97.7137 19.11 98.2837 19.235 98.7937 19.485C99.3137 19.725 99.7337 20.08 100.054 20.55L99.4987 20.955C99.2187 20.565 98.8687 20.275 98.4487 20.085C98.0387 19.885 97.5837 19.785 97.0837 19.785C96.4737 19.785 95.9237 19.925 95.4337 20.205C94.9537 20.475 94.5737 20.86 94.2937 21.36C94.0237 21.86 93.8887 22.435 93.8887 23.085C93.8887 23.735 94.0237 24.31 94.2937 24.81C94.5737 25.31 94.9537 25.7 95.4337 25.98C95.9237 26.25 96.4737 26.385 97.0837 26.385C97.5837 26.385 98.0387 26.29 98.4487 26.1C98.8687 25.9 99.2187 25.605 99.4987 25.215L100.054 25.62C99.7337 26.09 99.3137 26.45 98.7937 26.7C98.2837 26.94 97.7137 27.06 97.0837 27.06ZM104.939 19.11C105.909 19.11 106.654 19.36 107.174 19.86C107.694 20.35 107.954 21.075 107.954 22.035V27H107.234V25.605C106.984 26.065 106.619 26.425 106.139 26.685C105.659 26.935 105.084 27.06 104.414 27.06C103.544 27.06 102.854 26.855 102.344 26.445C101.844 26.035 101.594 25.495 101.594 24.825C101.594 24.175 101.824 23.65 102.284 23.25C102.754 22.84 103.499 22.635 104.519 22.635H107.204V22.005C107.204 21.275 107.004 20.72 106.604 20.34C106.214 19.96 105.639 19.77 104.879 19.77C104.359 19.77 103.859 19.86 103.379 20.04C102.909 20.22 102.509 20.46 102.179 20.76L101.804 20.22C102.194 19.87 102.664 19.6 103.214 19.41C103.764 19.21 104.339 19.11 104.939 19.11ZM104.519 26.445C105.169 26.445 105.719 26.295 106.169 25.995C106.629 25.695 106.974 25.26 107.204 24.69V23.22H104.534C103.764 23.22 103.204 23.36 102.854 23.64C102.514 23.92 102.344 24.305 102.344 24.795C102.344 25.305 102.534 25.71 102.914 26.01C103.294 26.3 103.829 26.445 104.519 26.445ZM111.764 20.88C112.004 20.31 112.379 19.875 112.889 19.575C113.399 19.265 114.019 19.11 114.749 19.11V19.845L114.569 19.83C113.699 19.83 113.019 20.105 112.529 20.655C112.039 21.195 111.794 21.95 111.794 22.92V27H111.044V19.17H111.764V20.88ZM123.792 19.17V26.16C123.792 27.46 123.477 28.42 122.847 29.04C122.217 29.66 121.267 29.97 119.997 29.97C119.277 29.97 118.597 29.86 117.957 29.64C117.317 29.42 116.802 29.115 116.412 28.725L116.817 28.155C117.207 28.515 117.677 28.795 118.227 28.995C118.777 29.195 119.362 29.295 119.982 29.295C121.022 29.295 121.792 29.045 122.292 28.545C122.792 28.055 123.042 27.29 123.042 26.25V24.93C122.722 25.5 122.277 25.94 121.707 26.25C121.137 26.56 120.497 26.715 119.787 26.715C119.057 26.715 118.392 26.555 117.792 26.235C117.202 25.905 116.737 25.45 116.397 24.87C116.057 24.29 115.887 23.635 115.887 22.905C115.887 22.175 116.057 21.52 116.397 20.94C116.737 20.36 117.202 19.91 117.792 19.59C118.392 19.27 119.057 19.11 119.787 19.11C120.507 19.11 121.157 19.27 121.737 19.59C122.317 19.91 122.762 20.36 123.072 20.94V19.17H123.792ZM119.847 26.04C120.457 26.04 121.007 25.91 121.497 25.65C121.987 25.38 122.367 25.01 122.637 24.54C122.917 24.06 123.057 23.515 123.057 22.905C123.057 22.295 122.917 21.755 122.637 21.285C122.367 20.815 121.987 20.45 121.497 20.19C121.007 19.92 120.457 19.785 119.847 19.785C119.237 19.785 118.687 19.92 118.197 20.19C117.717 20.45 117.337 20.815 117.057 21.285C116.787 21.755 116.652 22.295 116.652 22.905C116.652 23.515 116.787 24.06 117.057 24.54C117.337 25.01 117.717 25.38 118.197 25.65C118.687 25.91 119.237 26.04 119.847 26.04ZM129.607 19.11C130.577 19.11 131.322 19.36 131.842 19.86C132.362 20.35 132.622 21.075 132.622 22.035V27H131.902V25.605C131.652 26.065 131.287 26.425 130.807 26.685C130.327 26.935 129.752 27.06 129.082 27.06C128.212 27.06 127.522 26.855 127.012 26.445C126.512 26.035 126.262 25.495 126.262 24.825C126.262 24.175 126.492 23.65 126.952 23.25C127.422 22.84 128.167 22.635 129.187 22.635H131.872V22.005C131.872 21.275 131.672 20.72 131.272 20.34C130.882 19.96 130.307 19.77 129.547 19.77C129.027 19.77 128.527 19.86 128.047 20.04C127.577 20.22 127.177 20.46 126.847 20.76L126.472 20.22C126.862 19.87 127.332 19.6 127.882 19.41C128.432 19.21 129.007 19.11 129.607 19.11ZM129.187 26.445C129.837 26.445 130.387 26.295 130.837 25.995C131.297 25.695 131.642 25.26 131.872 24.69V23.22H129.202C128.432 23.22 127.872 23.36 127.522 23.64C127.182 23.92 127.012 24.305 127.012 24.795C127.012 25.305 127.202 25.71 127.582 26.01C127.962 26.3 128.497 26.445 129.187 26.445ZM146.18 23.265H139.445C139.465 23.875 139.62 24.42 139.91 24.9C140.2 25.37 140.59 25.735 141.08 25.995C141.58 26.255 142.14 26.385 142.76 26.385C143.27 26.385 143.74 26.295 144.17 26.115C144.61 25.925 144.975 25.65 145.265 25.29L145.7 25.785C145.36 26.195 144.93 26.51 144.41 26.73C143.9 26.95 143.345 27.06 142.745 27.06C141.965 27.06 141.27 26.89 140.66 26.55C140.05 26.21 139.57 25.74 139.22 25.14C138.88 24.54 138.71 23.855 138.71 23.085C138.71 22.325 138.87 21.645 139.19 21.045C139.52 20.435 139.97 19.96 140.54 19.62C141.11 19.28 141.75 19.11 142.46 19.11C143.17 19.11 143.805 19.28 144.365 19.62C144.935 19.95 145.38 20.415 145.7 21.015C146.03 21.615 146.195 22.295 146.195 23.055L146.18 23.265ZM142.46 19.77C141.91 19.77 141.415 19.895 140.975 20.145C140.535 20.385 140.18 20.73 139.91 21.18C139.65 21.62 139.5 22.12 139.46 22.68H145.46C145.43 22.12 145.28 21.62 145.01 21.18C144.74 20.74 144.385 20.395 143.945 20.145C143.505 19.895 143.01 19.77 142.46 19.77ZM152.34 19.11C153.32 19.11 154.095 19.395 154.665 19.965C155.235 20.535 155.52 21.355 155.52 22.425V27H154.77V22.485C154.77 21.605 154.545 20.935 154.095 20.475C153.655 20.015 153.035 19.785 152.235 19.785C151.315 19.785 150.59 20.06 150.06 20.61C149.53 21.16 149.265 21.9 149.265 22.83V27H148.515V19.17H149.235V20.865C149.505 20.315 149.905 19.885 150.435 19.575C150.975 19.265 151.61 19.11 152.34 19.11Z" fill="white"/>
<path d="M74.9994 42.6544H67.2994L65.7814 46.2184H62.8334L69.7634 30.8184H72.5794L79.5314 46.2184H76.5394L74.9994 42.6544ZM74.0534 40.4104L71.1494 33.6784L68.2674 40.4104H74.0534ZM87.7379 34.3384C88.8819 34.3384 89.9012 34.5877 90.7959 35.0864C91.7052 35.585 92.4165 36.289 92.9299 37.1984C93.4432 38.1077 93.6999 39.1564 93.6999 40.3444C93.6999 41.5324 93.4432 42.5884 92.9299 43.5124C92.4165 44.4217 91.7052 45.1257 90.7959 45.6244C89.9012 46.1231 88.8819 46.3724 87.7379 46.3724C86.1539 46.3724 84.8999 45.8444 83.9759 44.7884V50.4864H81.2259V34.4704H83.8439V36.0104C84.2985 35.453 84.8559 35.035 85.5159 34.7564C86.1905 34.4777 86.9312 34.3384 87.7379 34.3384ZM87.4299 44.0184C88.4419 44.0184 89.2705 43.6811 89.9159 43.0064C90.5759 42.3317 90.9059 41.4444 90.9059 40.3444C90.9059 39.2444 90.5759 38.3571 89.9159 37.6824C89.2705 37.0077 88.4419 36.6704 87.4299 36.6704C86.7699 36.6704 86.1759 36.8244 85.6479 37.1324C85.1199 37.4257 84.7019 37.8511 84.3939 38.4084C84.0859 38.9657 83.9319 39.6111 83.9319 40.3444C83.9319 41.0777 84.0859 41.7231 84.3939 42.2804C84.7019 42.8377 85.1199 43.2704 85.6479 43.5784C86.1759 43.8717 86.7699 44.0184 87.4299 44.0184ZM102.82 34.3384C103.964 34.3384 104.983 34.5877 105.878 35.0864C106.787 35.585 107.499 36.289 108.012 37.1984C108.525 38.1077 108.782 39.1564 108.782 40.3444C108.782 41.5324 108.525 42.5884 108.012 43.5124C107.499 44.4217 106.787 45.1257 105.878 45.6244C104.983 46.1231 103.964 46.3724 102.82 46.3724C101.236 46.3724 99.9819 45.8444 99.0579 44.7884V50.4864H96.3079V34.4704H98.9259V36.0104C99.3806 35.453 99.9379 35.035 100.598 34.7564C101.273 34.4777 102.013 34.3384 102.82 34.3384ZM102.512 44.0184C103.524 44.0184 104.353 43.6811 104.998 43.0064C105.658 42.3317 105.988 41.4444 105.988 40.3444C105.988 39.2444 105.658 38.3571 104.998 37.6824C104.353 37.0077 103.524 36.6704 102.512 36.6704C101.852 36.6704 101.258 36.8244 100.73 37.1324C100.202 37.4257 99.7839 37.8511 99.4759 38.4084C99.1679 38.9657 99.0139 39.6111 99.0139 40.3444C99.0139 41.0777 99.1679 41.7231 99.4759 42.2804C99.7839 42.8377 100.202 43.2704 100.73 43.5784C101.258 43.8717 101.852 44.0184 102.512 44.0184ZM122.508 46.4384C121.32 46.4384 120.169 46.2697 119.054 45.9324C117.954 45.5951 117.081 45.1477 116.436 44.5904L117.426 42.3684C118.057 42.8671 118.827 43.2777 119.736 43.6004C120.66 43.9084 121.584 44.0624 122.508 44.0624C123.652 44.0624 124.503 43.8791 125.06 43.5124C125.632 43.1457 125.918 42.6617 125.918 42.0604C125.918 41.6204 125.757 41.2611 125.434 40.9824C125.126 40.6891 124.73 40.4617 124.246 40.3004C123.762 40.1391 123.102 39.9557 122.266 39.7504C121.093 39.4717 120.139 39.193 119.406 38.9144C118.687 38.6357 118.064 38.2031 117.536 37.6164C117.023 37.0151 116.766 36.2084 116.766 35.1964C116.766 34.3457 116.993 33.5757 117.448 32.8864C117.917 32.1824 118.614 31.625 119.538 31.2144C120.477 30.8037 121.621 30.5984 122.97 30.5984C123.909 30.5984 124.833 30.7157 125.742 30.9504C126.651 31.185 127.436 31.5224 128.096 31.9624L127.194 34.1844C126.519 33.7884 125.815 33.4877 125.082 33.2824C124.349 33.077 123.637 32.9744 122.948 32.9744C121.819 32.9744 120.975 33.165 120.418 33.5464C119.875 33.9277 119.604 34.4337 119.604 35.0644C119.604 35.5044 119.758 35.8637 120.066 36.1424C120.389 36.4211 120.792 36.6411 121.276 36.8024C121.76 36.9637 122.42 37.147 123.256 37.3524C124.4 37.6164 125.339 37.8951 126.072 38.1884C126.805 38.4671 127.429 38.8997 127.942 39.4864C128.47 40.0731 128.734 40.8651 128.734 41.8624C128.734 42.7131 128.499 43.4831 128.03 44.1724C127.575 44.8617 126.879 45.4117 125.94 45.8224C125.001 46.2331 123.857 46.4384 122.508 46.4384ZM138.368 45.5804C138.045 45.8444 137.649 46.0424 137.18 46.1744C136.725 46.3064 136.241 46.3724 135.728 46.3724C134.437 46.3724 133.44 46.0351 132.736 45.3604C132.032 44.6857 131.68 43.7031 131.68 42.4124V36.7584H129.744V34.5584H131.68V31.8744H134.43V34.5584H137.576V36.7584H134.43V42.3464C134.43 42.9184 134.569 43.3584 134.848 43.6664C135.127 43.9597 135.53 44.1064 136.058 44.1064C136.674 44.1064 137.187 43.9451 137.598 43.6224L138.368 45.5804ZM145.523 46.3724C144.335 46.3724 143.265 46.1157 142.311 45.6024C141.358 45.0891 140.61 44.3777 140.067 43.4684C139.539 42.5444 139.275 41.5031 139.275 40.3444C139.275 39.1857 139.539 38.1517 140.067 37.2424C140.61 36.333 141.358 35.6217 142.311 35.1084C143.265 34.5951 144.335 34.3384 145.523 34.3384C146.726 34.3384 147.804 34.5951 148.757 35.1084C149.711 35.6217 150.451 36.333 150.979 37.2424C151.522 38.1517 151.793 39.1857 151.793 40.3444C151.793 41.5031 151.522 42.5444 150.979 43.4684C150.451 44.3777 149.711 45.0891 148.757 45.6024C147.804 46.1157 146.726 46.3724 145.523 46.3724ZM145.523 44.0184C146.535 44.0184 147.371 43.6811 148.031 43.0064C148.691 42.3317 149.021 41.4444 149.021 40.3444C149.021 39.2444 148.691 38.3571 148.031 37.6824C147.371 37.0077 146.535 36.6704 145.523 36.6704C144.511 36.6704 143.675 37.0077 143.015 37.6824C142.37 38.3571 142.047 39.2444 142.047 40.3444C142.047 41.4444 142.37 42.3317 143.015 43.0064C143.675 43.6811 144.511 44.0184 145.523 44.0184ZM157.041 36.1864C157.833 34.9544 159.226 34.3384 161.221 34.3384V36.9564C160.986 36.9124 160.774 36.8904 160.583 36.8904C159.512 36.8904 158.676 37.2057 158.075 37.8364C157.474 38.4524 157.173 39.3471 157.173 40.5204V46.2184H154.423V34.4704H157.041V36.1864ZM174.491 40.4104C174.491 40.6011 174.476 40.8724 174.447 41.2244H165.229C165.39 42.0897 165.808 42.7791 166.483 43.2924C167.172 43.7911 168.023 44.0404 169.035 44.0404C170.325 44.0404 171.389 43.6151 172.225 42.7644L173.699 44.4584C173.171 45.0891 172.503 45.5657 171.697 45.8884C170.89 46.2111 169.981 46.3724 168.969 46.3724C167.678 46.3724 166.541 46.1157 165.559 45.6024C164.576 45.0891 163.813 44.3777 163.271 43.4684C162.743 42.5444 162.479 41.5031 162.479 40.3444C162.479 39.2004 162.735 38.1737 163.249 37.2644C163.777 36.3404 164.503 35.6217 165.427 35.1084C166.351 34.5951 167.392 34.3384 168.551 34.3384C169.695 34.3384 170.714 34.5951 171.609 35.1084C172.518 35.6071 173.222 36.3184 173.721 37.2424C174.234 38.1517 174.491 39.2077 174.491 40.4104ZM168.551 36.5384C167.671 36.5384 166.923 36.8024 166.307 37.3304C165.705 37.8437 165.339 38.5331 165.207 39.3984H171.873C171.755 38.5477 171.396 37.8584 170.795 37.3304C170.193 36.8024 169.445 36.5384 168.551 36.5384Z" fill="white"/>
<path d="M321.179 16.5H325.334C326.424 16.5 327.389 16.725 328.229 17.175C329.079 17.625 329.739 18.25 330.209 19.05C330.679 19.84 330.914 20.74 330.914 21.75C330.914 22.76 330.679 23.665 330.209 24.465C329.739 25.255 329.079 25.875 328.229 26.325C327.389 26.775 326.424 27 325.334 27H321.179V16.5ZM325.274 26.31C326.244 26.31 327.099 26.12 327.839 25.74C328.579 25.35 329.149 24.81 329.549 24.12C329.949 23.43 330.149 22.64 330.149 21.75C330.149 20.86 329.949 20.07 329.549 19.38C329.149 18.69 328.579 18.155 327.839 17.775C327.099 17.385 326.244 17.19 325.274 17.19H321.944V26.31H325.274ZM333.331 19.17H334.081V27H333.331V19.17ZM333.706 17.265C333.536 17.265 333.391 17.21 333.271 17.1C333.151 16.98 333.091 16.835 333.091 16.665C333.091 16.495 333.151 16.35 333.271 16.23C333.391 16.11 333.536 16.05 333.706 16.05C333.876 16.05 334.021 16.11 334.141 16.23C334.261 16.34 334.321 16.48 334.321 16.65C334.321 16.82 334.261 16.965 334.141 17.085C334.021 17.205 333.876 17.265 333.706 17.265ZM339.222 27.06C338.592 27.06 337.992 26.965 337.422 26.775C336.852 26.585 336.407 26.345 336.087 26.055L336.432 25.455C336.752 25.725 337.162 25.95 337.662 26.13C338.172 26.31 338.702 26.4 339.252 26.4C340.042 26.4 340.622 26.27 340.992 26.01C341.372 25.75 341.562 25.39 341.562 24.93C341.562 24.6 341.457 24.34 341.247 24.15C341.047 23.96 340.797 23.82 340.497 23.73C340.197 23.64 339.782 23.545 339.252 23.445C338.632 23.335 338.132 23.215 337.752 23.085C337.372 22.955 337.047 22.745 336.777 22.455C336.507 22.165 336.372 21.765 336.372 21.255C336.372 20.635 336.627 20.125 337.137 19.725C337.657 19.315 338.392 19.11 339.342 19.11C339.842 19.11 340.337 19.18 340.827 19.32C341.317 19.46 341.717 19.645 342.027 19.875L341.682 20.475C341.362 20.245 340.997 20.07 340.587 19.95C340.177 19.83 339.757 19.77 339.327 19.77C338.597 19.77 338.047 19.905 337.677 20.175C337.307 20.445 337.122 20.8 337.122 21.24C337.122 21.59 337.227 21.865 337.437 22.065C337.647 22.255 337.902 22.4 338.202 22.5C338.512 22.59 338.942 22.69 339.492 22.8C340.102 22.91 340.592 23.03 340.962 23.16C341.342 23.28 341.662 23.48 341.922 23.76C342.182 24.04 342.312 24.425 342.312 24.915C342.312 25.565 342.042 26.085 341.502 26.475C340.962 26.865 340.202 27.06 339.222 27.06ZM348.335 19.11C349.065 19.11 349.725 19.28 350.315 19.62C350.905 19.96 351.365 20.43 351.695 21.03C352.035 21.63 352.205 22.315 352.205 23.085C352.205 23.855 352.035 24.545 351.695 25.155C351.365 25.755 350.905 26.225 350.315 26.565C349.725 26.895 349.065 27.06 348.335 27.06C347.645 27.06 347.02 26.9 346.46 26.58C345.9 26.25 345.465 25.795 345.155 25.215V29.91H344.405V19.17H345.125V21.015C345.435 20.415 345.87 19.95 346.43 19.62C347 19.28 347.635 19.11 348.335 19.11ZM348.29 26.385C348.89 26.385 349.43 26.245 349.91 25.965C350.39 25.685 350.765 25.295 351.035 24.795C351.315 24.295 351.455 23.725 351.455 23.085C351.455 22.445 351.315 21.875 351.035 21.375C350.765 20.875 350.39 20.485 349.91 20.205C349.43 19.925 348.89 19.785 348.29 19.785C347.69 19.785 347.15 19.925 346.67 20.205C346.2 20.485 345.825 20.875 345.545 21.375C345.275 21.875 345.14 22.445 345.14 23.085C345.14 23.725 345.275 24.295 345.545 24.795C345.825 25.295 346.2 25.685 346.67 25.965C347.15 26.245 347.69 26.385 348.29 26.385ZM357.588 27.06C356.848 27.06 356.178 26.89 355.578 26.55C354.988 26.21 354.523 25.74 354.183 25.14C353.843 24.53 353.673 23.845 353.673 23.085C353.673 22.325 353.843 21.645 354.183 21.045C354.523 20.435 354.988 19.96 355.578 19.62C356.178 19.28 356.848 19.11 357.588 19.11C358.328 19.11 358.993 19.28 359.583 19.62C360.183 19.96 360.653 20.435 360.993 21.045C361.333 21.645 361.503 22.325 361.503 23.085C361.503 23.845 361.333 24.53 360.993 25.14C360.653 25.74 360.183 26.21 359.583 26.55C358.993 26.89 358.328 27.06 357.588 27.06ZM357.588 26.385C358.188 26.385 358.723 26.245 359.193 25.965C359.673 25.685 360.048 25.295 360.318 24.795C360.598 24.295 360.738 23.725 360.738 23.085C360.738 22.445 360.598 21.875 360.318 21.375C360.048 20.875 359.673 20.485 359.193 20.205C358.723 19.925 358.188 19.785 357.588 19.785C356.988 19.785 356.448 19.925 355.968 20.205C355.498 20.485 355.123 20.875 354.843 21.375C354.573 21.875 354.438 22.445 354.438 23.085C354.438 23.725 354.573 24.295 354.843 24.795C355.123 25.295 355.498 25.685 355.968 25.965C356.448 26.245 356.988 26.385 357.588 26.385ZM367.654 19.11C368.634 19.11 369.409 19.395 369.979 19.965C370.549 20.535 370.834 21.355 370.834 22.425V27H370.084V22.485C370.084 21.605 369.859 20.935 369.409 20.475C368.969 20.015 368.349 19.785 367.549 19.785C366.629 19.785 365.904 20.06 365.374 20.61C364.844 21.16 364.579 21.9 364.579 22.83V27H363.829V19.17H364.549V20.865C364.819 20.315 365.219 19.885 365.749 19.575C366.289 19.265 366.924 19.11 367.654 19.11ZM373.922 19.17H374.672V27H373.922V19.17ZM374.297 17.265C374.127 17.265 373.982 17.21 373.862 17.1C373.742 16.98 373.682 16.835 373.682 16.665C373.682 16.495 373.742 16.35 373.862 16.23C373.982 16.11 374.127 16.05 374.297 16.05C374.467 16.05 374.612 16.11 374.732 16.23C374.852 16.34 374.912 16.48 374.912 16.65C374.912 16.82 374.852 16.965 374.732 17.085C374.612 17.205 374.467 17.265 374.297 17.265ZM381.763 19.11C382.493 19.11 383.153 19.28 383.743 19.62C384.333 19.95 384.793 20.42 385.123 21.03C385.463 21.63 385.633 22.315 385.633 23.085C385.633 23.855 385.463 24.54 385.123 25.14C384.793 25.74 384.333 26.21 383.743 26.55C383.153 26.89 382.493 27.06 381.763 27.06C381.063 27.06 380.428 26.895 379.858 26.565C379.298 26.225 378.863 25.755 378.553 25.155V27H377.833V15.87H378.583V20.955C378.893 20.375 379.328 19.925 379.888 19.605C380.448 19.275 381.073 19.11 381.763 19.11ZM381.718 26.385C382.318 26.385 382.858 26.245 383.338 25.965C383.818 25.685 384.193 25.295 384.463 24.795C384.743 24.295 384.883 23.725 384.883 23.085C384.883 22.445 384.743 21.875 384.463 21.375C384.193 20.875 383.818 20.485 383.338 20.205C382.858 19.925 382.318 19.785 381.718 19.785C381.118 19.785 380.578 19.925 380.098 20.205C379.628 20.485 379.253 20.875 378.973 21.375C378.703 21.875 378.568 22.445 378.568 23.085C378.568 23.725 378.703 24.295 378.973 24.795C379.253 25.295 379.628 25.685 380.098 25.965C380.578 26.245 381.118 26.385 381.718 26.385ZM387.955 15.87H388.705V27H387.955V15.87ZM398.481 23.265H391.746C391.766 23.875 391.921 24.42 392.211 24.9C392.501 25.37 392.891 25.735 393.381 25.995C393.881 26.255 394.441 26.385 395.061 26.385C395.571 26.385 396.041 26.295 396.471 26.115C396.911 25.925 397.276 25.65 397.566 25.29L398.001 25.785C397.661 26.195 397.231 26.51 396.711 26.73C396.201 26.95 395.646 27.06 395.046 27.06C394.266 27.06 393.571 26.89 392.961 26.55C392.351 26.21 391.871 25.74 391.521 25.14C391.181 24.54 391.011 23.855 391.011 23.085C391.011 22.325 391.171 21.645 391.491 21.045C391.821 20.435 392.271 19.96 392.841 19.62C393.411 19.28 394.051 19.11 394.761 19.11C395.471 19.11 396.106 19.28 396.666 19.62C397.236 19.95 397.681 20.415 398.001 21.015C398.331 21.615 398.496 22.295 398.496 23.055L398.481 23.265ZM394.761 19.77C394.211 19.77 393.716 19.895 393.276 20.145C392.836 20.385 392.481 20.73 392.211 21.18C391.951 21.62 391.801 22.12 391.761 22.68H397.761C397.731 22.12 397.581 21.62 397.311 21.18C397.041 20.74 396.686 20.395 396.246 20.145C395.806 19.895 395.311 19.77 394.761 19.77Z" fill="white"/>
<path d="M329.584 45.37H332.29V51.508C331.498 52.1386 330.574 52.6226 329.518 52.96C328.462 53.2973 327.377 53.466 326.262 53.466C324.693 53.466 323.277 53.1286 322.016 52.454C320.755 51.7646 319.765 50.8186 319.046 49.616C318.327 48.4133 317.968 47.0566 317.968 45.546C317.968 44.0353 318.327 42.6786 319.046 41.476C319.765 40.2733 320.755 39.3346 322.016 38.66C323.292 37.9706 324.722 37.626 326.306 37.626C327.597 37.626 328.77 37.8386 329.826 38.264C330.882 38.6893 331.769 39.3126 332.488 40.134L330.684 41.894C329.511 40.7206 328.095 40.134 326.438 40.134C325.353 40.134 324.385 40.3613 323.534 40.816C322.698 41.2706 322.038 41.9086 321.554 42.73C321.085 43.5513 320.85 44.49 320.85 45.546C320.85 46.5726 321.085 47.4966 321.554 48.318C322.038 49.1393 322.698 49.7846 323.534 50.254C324.385 50.7233 325.345 50.958 326.416 50.958C327.619 50.958 328.675 50.694 329.584 50.166V45.37ZM341.078 53.4C339.89 53.4 338.819 53.1433 337.866 52.63C336.913 52.1166 336.165 51.4053 335.622 50.496C335.094 49.572 334.83 48.5306 334.83 47.372C334.83 46.2133 335.094 45.1793 335.622 44.27C336.165 43.3606 336.913 42.6493 337.866 42.136C338.819 41.6226 339.89 41.366 341.078 41.366C342.281 41.366 343.359 41.6226 344.312 42.136C345.265 42.6493 346.006 43.3606 346.534 44.27C347.077 45.1793 347.348 46.2133 347.348 47.372C347.348 48.5306 347.077 49.572 346.534 50.496C346.006 51.4053 345.265 52.1166 344.312 52.63C343.359 53.1433 342.281 53.4 341.078 53.4ZM341.078 51.046C342.09 51.046 342.926 50.7086 343.586 50.034C344.246 49.3593 344.576 48.472 344.576 47.372C344.576 46.272 344.246 45.3846 343.586 44.71C342.926 44.0353 342.09 43.698 341.078 43.698C340.066 43.698 339.23 44.0353 338.57 44.71C337.925 45.3846 337.602 46.272 337.602 47.372C337.602 48.472 337.925 49.3593 338.57 50.034C339.23 50.7086 340.066 51.046 341.078 51.046ZM355.258 53.4C354.07 53.4 352.999 53.1433 352.046 52.63C351.092 52.1166 350.344 51.4053 349.802 50.496C349.274 49.572 349.01 48.5306 349.01 47.372C349.01 46.2133 349.274 45.1793 349.802 44.27C350.344 43.3606 351.092 42.6493 352.046 42.136C352.999 41.6226 354.07 41.366 355.258 41.366C356.46 41.366 357.538 41.6226 358.492 42.136C359.445 42.6493 360.186 43.3606 360.714 44.27C361.256 45.1793 361.528 46.2133 361.528 47.372C361.528 48.5306 361.256 49.572 360.714 50.496C360.186 51.4053 359.445 52.1166 358.492 52.63C357.538 53.1433 356.46 53.4 355.258 53.4ZM355.258 51.046C356.27 51.046 357.106 50.7086 357.766 50.034C358.426 49.3593 358.756 48.472 358.756 47.372C358.756 46.272 358.426 45.3846 357.766 44.71C357.106 44.0353 356.27 43.698 355.258 43.698C354.246 43.698 353.41 44.0353 352.75 44.71C352.104 45.3846 351.782 46.272 351.782 47.372C351.782 48.472 352.104 49.3593 352.75 50.034C353.41 50.7086 354.246 51.046 355.258 51.046ZM375.818 41.498V51.464C375.818 55.6 373.706 57.668 369.482 57.668C368.352 57.668 367.282 57.5213 366.27 57.228C365.258 56.9493 364.422 56.5386 363.762 55.996L364.994 53.928C365.507 54.3533 366.152 54.6906 366.93 54.94C367.722 55.204 368.521 55.336 369.328 55.336C370.618 55.336 371.564 55.0426 372.166 54.456C372.767 53.8693 373.068 52.9746 373.068 51.772V51.156C372.598 51.6693 372.026 52.058 371.352 52.322C370.677 52.586 369.936 52.718 369.13 52.718C368.015 52.718 367.003 52.4833 366.094 52.014C365.199 51.53 364.488 50.8553 363.96 49.99C363.446 49.1246 363.19 48.1346 363.19 47.02C363.19 45.9053 363.446 44.9226 363.96 44.072C364.488 43.2066 365.199 42.5393 366.094 42.07C367.003 41.6006 368.015 41.366 369.13 41.366C369.98 41.366 370.75 41.5053 371.44 41.784C372.144 42.0626 372.73 42.488 373.2 43.06V41.498H375.818ZM369.548 50.386C370.589 50.386 371.44 50.078 372.1 49.462C372.774 48.8313 373.112 48.0173 373.112 47.02C373.112 46.0373 372.774 45.238 372.1 44.622C371.44 44.006 370.589 43.698 369.548 43.698C368.492 43.698 367.626 44.006 366.952 44.622C366.292 45.238 365.962 46.0373 365.962 47.02C365.962 48.0173 366.292 48.8313 366.952 49.462C367.626 50.078 368.492 50.386 369.548 50.386ZM379.433 36.922H382.183V53.246H379.433V36.922ZM396.836 47.438C396.836 47.6286 396.822 47.9 396.792 48.252H387.574C387.736 49.1173 388.154 49.8066 388.828 50.32C389.518 50.8186 390.368 51.068 391.38 51.068C392.671 51.068 393.734 50.6426 394.57 49.792L396.044 51.486C395.516 52.1166 394.849 52.5933 394.042 52.916C393.236 53.2386 392.326 53.4 391.314 53.4C390.024 53.4 388.887 53.1433 387.904 52.63C386.922 52.1166 386.159 51.4053 385.616 50.496C385.088 49.572 384.824 48.5306 384.824 47.372C384.824 46.228 385.081 45.2013 385.594 44.292C386.122 43.368 386.848 42.6493 387.772 42.136C388.696 41.6226 389.738 41.366 390.896 41.366C392.04 41.366 393.06 41.6226 393.954 42.136C394.864 42.6346 395.568 43.346 396.066 44.27C396.58 45.1793 396.836 46.2353 396.836 47.438ZM390.896 43.566C390.016 43.566 389.268 43.83 388.652 44.358C388.051 44.8713 387.684 45.5606 387.552 46.426H394.218C394.101 45.5753 393.742 44.886 393.14 44.358C392.539 43.83 391.791 43.566 390.896 43.566ZM412.158 37.846C413.493 37.846 414.651 38.066 415.634 38.506C416.631 38.946 417.394 39.5766 417.922 40.398C418.45 41.2193 418.714 42.1946 418.714 43.324C418.714 44.4386 418.45 45.414 417.922 46.25C417.394 47.0713 416.631 47.702 415.634 48.142C414.651 48.582 413.493 48.802 412.158 48.802H408.682V53.246H405.822V37.846H412.158ZM412.026 46.382C413.273 46.382 414.219 46.118 414.864 45.59C415.509 45.062 415.832 44.3066 415.832 43.324C415.832 42.3413 415.509 41.586 414.864 41.058C414.219 40.53 413.273 40.266 412.026 40.266H408.682V46.382H412.026ZM421.521 36.922H424.271V53.246H421.521V36.922ZM432.368 41.366C434.099 41.366 435.419 41.784 436.328 42.62C437.252 43.4413 437.714 44.688 437.714 46.36V53.246H435.118V51.816C434.781 52.3293 434.297 52.7253 433.666 53.004C433.05 53.268 432.302 53.4 431.422 53.4C430.542 53.4 429.772 53.2533 429.112 52.96C428.452 52.652 427.939 52.234 427.572 51.706C427.22 51.1633 427.044 50.5546 427.044 49.88C427.044 48.824 427.433 47.9806 428.21 47.35C429.002 46.7046 430.242 46.382 431.928 46.382H434.964V46.206C434.964 45.3846 434.715 44.754 434.216 44.314C433.732 43.874 433.006 43.654 432.038 43.654C431.378 43.654 430.726 43.7566 430.08 43.962C429.45 44.1673 428.914 44.4533 428.474 44.82L427.396 42.818C428.012 42.3486 428.753 41.9893 429.618 41.74C430.484 41.4906 431.4 41.366 432.368 41.366ZM431.994 51.398C432.684 51.398 433.292 51.244 433.82 50.936C434.363 50.6133 434.744 50.1586 434.964 49.572V48.208H432.126C430.542 48.208 429.75 48.7286 429.75 49.77C429.75 50.2686 429.948 50.6646 430.344 50.958C430.74 51.2513 431.29 51.398 431.994 51.398ZM452.029 41.498L446.529 54.192C446.015 55.468 445.392 56.3626 444.659 56.876C443.925 57.404 443.038 57.668 441.997 57.668C441.41 57.668 440.831 57.5726 440.259 57.382C439.687 57.1913 439.217 56.9273 438.851 56.59L439.951 54.566C440.215 54.8153 440.523 55.0133 440.875 55.16C441.241 55.3066 441.608 55.38 441.975 55.38C442.459 55.38 442.855 55.2553 443.163 55.006C443.485 54.7566 443.779 54.3386 444.043 53.752L444.241 53.29L439.115 41.498H441.975L445.671 50.188L449.389 41.498H452.029Z" fill="white"/>
<path d="M301.777 34.5223L292.897 29.402L285.594 36.4619L292.271 42.9114L301.777 37.4239C302.299 37.1239 302.615 36.5756 302.615 35.9705C302.615 35.3706 302.299 34.8275 301.777 34.5223Z" fill="white"/>
<path d="M291.7 28.5359L281.932 22.8943L260.521 11.92L284.705 35.3006L291.7 28.5359Z" fill="white"/>
<path d="M260.698 60.6681L281.795 49.0464L290.896 43.7852L284.525 37.6341L260.698 60.6681Z" fill="white"/>
<path d="M258.84 12.8734L258.819 60.0891L283.252 36.4683L258.84 12.8734Z" fill="white"/>
</svg>
