<svg width="21" height="20" viewBox="0 0 21 20" fill="none" xmlns="http://www.w3.org/2000/svg">
<g clip-path="url(#clip0)">
<path d="M20.1699 3.79875C19.4262 4.125 18.6337 4.34125 17.8074 4.44625C18.6574 3.93875 19.3062 3.14125 19.6112 2.18C18.8187 2.6525 17.9437 2.98625 17.0112 3.1725C16.2587 2.37125 15.1862 1.875 14.0162 1.875C11.7462 1.875 9.91867 3.7175 9.91867 5.97625C9.91867 6.30125 9.94617 6.61375 10.0137 6.91125C6.60492 6.745 3.58867 5.11125 1.56242 2.6225C1.20867 3.23625 1.00117 3.93875 1.00117 4.695C1.00117 6.115 1.73242 7.37375 2.82242 8.1025C2.16367 8.09 1.51742 7.89875 0.969922 7.5975C0.969922 7.61 0.969922 7.62625 0.969922 7.6425C0.969922 9.635 2.39117 11.29 4.25492 11.6712C3.92117 11.7625 3.55742 11.8062 3.17992 11.8062C2.91742 11.8062 2.65242 11.7913 2.40367 11.7362C2.93492 13.36 4.44242 14.5538 6.23492 14.5925C4.83992 15.6838 3.06867 16.3412 1.15117 16.3412C0.814922 16.3412 0.492422 16.3263 0.169922 16.285C1.98617 17.4563 4.13867 18.125 6.45992 18.125C14.0049 18.125 18.1299 11.875 18.1299 6.4575C18.1299 6.27625 18.1237 6.10125 18.1149 5.9275C18.9287 5.35 19.6124 4.62875 20.1699 3.79875Z" fill="white"/>
</g>
<defs>
<clipPath id="clip0">
<rect width="20" height="20" fill="white" transform="translate(0.169922)"/>
</clipPath>
</defs>
</svg>
