<svg width="28" height="27" viewBox="0 0 28 27" fill="none" xmlns="http://www.w3.org/2000/svg">
<g clip-path="url(#clip0)">
<path d="M26.0224 6.0075C25.29 4.70475 24.4952 4.46513 22.8769 4.374C21.2603 4.26431 17.1951 4.21875 13.6733 4.21875C10.1447 4.21875 6.07786 4.26431 4.46292 4.37231C2.84798 4.46513 2.05148 4.70306 1.31236 6.0075C0.558047 7.30856 0.169922 9.54956 0.169922 13.4949C0.169922 13.4983 0.169922 13.5 0.169922 13.5C0.169922 13.5034 0.169922 13.5051 0.169922 13.5051V13.5084C0.169922 17.4369 0.558047 19.6948 1.31236 20.9824C2.05148 22.2851 2.8463 22.5214 4.46123 22.6311C6.07786 22.7256 10.1447 22.7812 13.6733 22.7812C17.1951 22.7812 21.2603 22.7256 22.8786 22.6327C24.4969 22.5231 25.2917 22.2868 26.0241 20.9841C26.7852 19.6965 27.1699 17.4386 27.1699 13.5101C27.1699 13.5101 27.1699 13.5051 27.1699 13.5017C27.1699 13.5017 27.1699 13.4983 27.1699 13.4966C27.1699 9.54956 26.7852 7.30856 26.0224 6.0075ZM10.2949 18.5625V8.4375L18.7324 13.5L10.2949 18.5625Z" fill="white"/>
</g>
<defs>
<clipPath id="clip0">
<rect width="27" height="27" fill="white" transform="translate(0.169922)"/>
</clipPath>
</defs>
</svg>
